<?xml version="1.0" standalone="no"?>
<!DOCTYPE svg PUBLIC "-//W3C//DTD SVG 1.1//EN" "http://www.w3.org/Graphics/SVG/1.1/DTD/svg11.dtd" >
<svg>
<metadata>
Created by FontForge 20120731 at Sat Oct 25 19:20:35 2014
 By Simon Tatham,,,
No copyright is claimed on this font file.
</metadata>
<defs>
<font id="Emmentaler-26" horiz-adv-x="185" >
  <font-face 
    font-family="Emmentaler-26"
    font-weight="400"
    font-stretch="normal"
    units-per-em="1000"
    panose-1="2 0 5 3 0 0 0 0 0 0"
    ascent="800"
    descent="-200"
    x-height="250.122"
    bbox="-510.259 -1487.37 852.632 1370.24"
    underline-thickness="50"
    underline-position="-100"
    unicode-range="U+0020-E1AE"
  />
    <missing-glyph />
    <glyph glyph-name="scripts.sforzato" unicode="&#xe100;" horiz-adv-x="219" 
d="M-206.864 126.238c-8.498 -2.679 -12.964 -10.131 -12.964 -17.821c0 -6.455 3.146 -13.0777 9.696 -17.1846c1.8 -1.1369 -9.04799 1.8 139.074 -37.9895c29.5579 -7.9579 75.9315 -20.4158 103.026 -27.7105c27.0947 -7.2948 59.3526 -15.9632 71.6682 -19.279
c12.269 -3.31579 22.358 -6.11053 22.358 -6.25264s-10.089 -2.93685 -22.358 -6.25264c-12.3156 -3.31579 -44.5735 -11.9842 -71.6682 -19.2789c-27.0947 -7.2947 -73.4684 -19.7526 -103.026 -27.7105c-154.231 -41.4474 -137.132 -36.7106 -140.4 -38.8895
c-5.625 -3.7263 -8.44299 -9.80721 -8.44299 -15.8892c0 -6.056 2.795 -12.113 8.396 -15.848c3.147 -2.07201 6.077 -3.08401 9.87399 -3.08401c3.061 0 6.685 0.658005 11.442 1.94801c6.726 1.8 56.795 15.252 161.053 43.2942
c228.488 61.4133 240.486 64.527 240.486 65.2851c0 0.0888996 -0.164993 0.1455 -0.164993 0.26c0 0.0702 0.0619965 0.1623 0.263 0.297099c5.63699 3.7421 8.45499 9.80522 8.45499 15.8684c0 6.06316 -2.81799 12.1263 -8.45499 15.8684
c-3.17401 2.0842 2.27299 0.521 -46.137 13.5474c-37.374 10.0421 -67.5475 18.1894 -194.447 52.2947c-104.258 28.0417 -154.327 41.4947 -161.053 43.2947c-4.795 1.316 -8.506 1.94601 -11.581 1.94601c-1.907 0 -3.57001 -0.243004 -5.093 -0.714005z" />
    <glyph glyph-name="scripts.espr" unicode="&#xe101;" horiz-adv-x="460" 
d="M-50.4474 125.053c-6.1105 -1.657 -36.1894 -9.757 -161.053 -43.3417c-228.488 -61.4133 -240.487 -64.5269 -240.487 -65.285c0 -0.0890007 0.165985 -0.1455 0.165985 -0.26c0 -0.0702991 -0.0619812 -0.1623 -0.263 -0.2971
c-5.63699 -3.7421 -8.45499 -9.80527 -8.45499 -15.8684c0 -6.06315 2.81799 -12.1263 8.45499 -15.8684c3.173 -2.0843 -2.27399 -0.5211 46.137 -13.5474c37.373 -10.0421 67.547 -18.1895 194.447 -52.2948c104.258 -28.0422 154.326 -41.4942 161.053 -43.2942
c4.7567 -1.29 8.3811 -1.94801 11.4418 -1.94801c3.7972 0 6.7267 1.012 9.874 3.08401c5.6013 3.73499 8.3961 9.792 8.3961 15.848c0 6.08199 -2.8184 12.1629 -8.4434 15.8892c-3.2685 2.1789 13.8315 -2.5579 -140.4 38.8895
c-29.558 7.9579 -75.932 20.4158 -103.026 27.7105c-27.095 7.2947 -59.353 15.9632 -71.621 19.2789c-12.316 3.31579 -22.406 6.11053 -22.406 6.25264s10.09 2.93684 22.406 6.25264c12.268 3.31579 44.526 11.9842 71.621 19.279
c27.094 7.2947 73.468 19.7526 103.026 27.7105c148.121 39.7895 137.274 36.8526 139.074 37.9895c6.5724 4.1284 9.8645 10.4676 9.8645 16.8026c0 6.312 -3.2684 12.621 -9.8171 16.734c-2.3058 1.423 -5.069 2.134 -8.4999 2.134
c-3.1944 0 -6.9676 -0.615997 -11.4896 -1.85zM33.7737 126.238c-8.4984 -2.679 -12.9645 -10.131 -12.9645 -17.821c0 -6.455 3.1465 -13.0777 9.6961 -17.1846c1.8 -1.1369 -9.0474 1.8 139.074 -37.9895c29.558 -7.9579 75.932 -20.4158 103.026 -27.7105
c27.095 -7.2948 59.353 -15.9632 71.669 -19.279c12.268 -3.31579 22.358 -6.11053 22.358 -6.25264s-10.09 -2.93685 -22.358 -6.25264c-12.316 -3.31579 -44.574 -11.9842 -71.669 -19.2789c-27.094 -7.2947 -73.468 -19.7526 -103.026 -27.7105
c-154.232 -41.4474 -137.132 -36.7106 -140.4 -38.8895c-5.625 -3.7263 -8.4434 -9.80721 -8.4434 -15.8892c0 -6.056 2.7948 -12.113 8.3961 -15.848c3.1473 -2.07201 6.0768 -3.08401 9.874 -3.08401c3.0607 0 6.6851 0.658005 11.4418 1.94801
c6.7263 1.8 56.7946 15.252 161.053 43.2942c228.488 61.4133 240.487 64.527 240.487 65.2851c0 0.0888996 -0.165985 0.1455 -0.165985 0.26c0 0.0702 0.0619812 0.1623 0.263 0.297099c5.63699 3.7421 8.45499 9.80522 8.45499 15.8684
c0 6.06316 -2.81799 12.1263 -8.45499 15.8684c-3.173 2.0842 2.27399 0.521 -46.137 13.5474c-37.373 10.0421 -67.547 18.1894 -194.447 52.2947c-104.258 28.0417 -154.326 41.4947 -161.053 43.2947c-4.7944 1.316 -8.5063 1.94601 -11.581 1.94601
c-1.9073 0 -3.5694 -0.243004 -5.0927 -0.714005z" />
    <glyph glyph-name="flags.ugrace" unicode="&#xe102;" horiz-adv-x="315" 
d="M286.158 -252.805c-5.82599 -0.948013 -9.853 -3.55301 -85.263 -54.853c-3.506 -2.41602 -24.3 -16.484 -46.184 -31.263c-21.885 -14.826 -42.964 -29.084 -46.895 -31.737c-3.884 -2.65302 -24.5844 -16.674 -45.9476 -31.121
c-53.5737 -36.237 -58.7368 -39.742 -86.2105 -58.31c-13.2632 -9 -30.979 -20.985 -39.3158 -26.622c-87.3471 -59.068 -81.1891 -54.663 -84.5531 -60.394c-2.43201 -4.12305 -3.54601 -8.539 -3.54601 -12.853c0 -12.491 9.343 -24.129 23.11 -25.326
c0.929001 -0.0780029 1.816 -0.119019 2.676 -0.119019c5.986 0 10.7 2.00604 19.397 7.88702c4.074 2.74799 14.5424 9.80499 23.2582 15.727c8.71581 5.92102 29.8421 20.178 46.8947 31.736c17.0527 11.558 38.179 25.816 46.8948 31.737
c8.7158 5.92102 29.8421 20.179 46.8947 31.737c17.0527 11.558 38.179 25.816 46.8946 31.737c8.716 5.92102 29.842 20.179 46.895 31.737c17.053 11.558 38.179 25.816 46.895 31.737c8.71501 5.92102 29.51 19.989 46.184 31.263
c16.674 11.273 37.421 25.342 46.137 31.216c20.463 13.878 23.021 16.484 24.963 25.721c0.385986 1.802 0.570007 3.58801 0.570007 5.33801c0 13.818 -11.47 25.388 -25.448 25.388c-1.41101 0 -2.84802 -0.117996 -4.30103 -0.362991z" />
    <glyph glyph-name="flags.dgrace" unicode="&#xe103;" horiz-adv-x="315" 
d="M-130.447 585.142c-12.656 -1.67804 -21.183 -13.29 -21.183 -25.39c0 -4.29504 1.07401 -8.651 3.41901 -12.647c2.985 -5.021 5.022 -6.58398 37.895 -28.847c17.3371 -11.7 38.3213 -25.911 46.6581 -31.547c8.3368 -5.63699 26.0526 -17.622 39.3158 -26.622
c27.4737 -18.568 32.6368 -22.073 86.2105 -58.31c21.3632 -14.447 42.0636 -28.468 45.9476 -31.121c3.931 -2.65298 25.01 -16.911 46.895 -31.737c21.884 -14.779 42.678 -28.847 46.184 -31.263c23.021 -15.679 74.084 -50.116 76.073 -51.347
c4.32703 -2.65201 8.90201 -3.84201 13.336 -3.84201c13.456 0 25.618 10.954 25.618 25.233c0 1.776 -0.187988 3.603 -0.584991 5.466c-1.94202 9.237 -4.5 11.843 -24.963 25.721c-8.716 5.87399 -29.463 19.943 -46.137 31.216
c-16.674 11.274 -37.469 25.342 -46.184 31.263c-8.71599 5.92099 -29.842 20.179 -46.895 31.737c-17.053 11.558 -38.179 25.816 -46.895 31.737c-8.7156 5.92099 -29.8419 20.179 -46.8946 31.737c-17.0526 11.558 -38.1789 25.816 -46.8947 31.737
c-8.71581 5.92099 -29.8421 20.179 -46.8948 31.737c-17.0526 11.558 -38.1789 25.815 -46.8947 31.736c-8.7158 5.922 -19.1842 12.979 -23.2582 15.727c-8.522 5.771 -13.559 7.93201 -19.619 7.93201c-1.351 0 -2.75201 -0.106995 -4.25401 -0.305969z" />
    <glyph glyph-name="accidentals.leftparen" unicode="&#xe104;" horiz-adv-x="0" 
d="M-35.2895 266.2c-2.7 -1.27902 -4.3105 -3.17401 -9.6158 -11.416c-42.5368 -66.505 -67.5947 -136.563 -74.8897 -209.132c-1.989 -19.5632 -2.179 -23.5421 -2.179 -45.7105c0 -22.1684 0.190002 -26.1474 2.179 -45.7106
c7.295 -72.5681 32.3529 -142.626 74.8897 -209.131c6.9632 -10.848 8.6685 -12.316 14.5895 -12.316c6.8211 0 11.3684 4.547 11.3684 11.368c0 2.511 -0.521 4.07401 -4.2158 13.169c-25.7684 62.526 -39.6947 126.284 -44.6684 204.015
c-0.402603 6.3711 -0.603905 22.3579 -0.603905 38.3803c0 16.0223 0.201302 32.0802 0.603905 38.5934c4.78419 77.1629 18.9 141.679 44.6684 204.253c3.0556 7.46899 4.3214 11.198 4.3214 14.003c0 1.5 -0.361898 2.73599 -1.0056 4.13898
c-1.8782 4.03403 -6.3103 6.51102 -10.7459 6.51102c-1.6052 0 -3.2109 -0.324005 -4.6962 -1.01599z" />
    <glyph glyph-name="accidentals.rightparen" unicode="&#xe105;" horiz-adv-x="121" 
d="M25.3421 266.479c-4.2394 -1.97699 -6.3082 -4.46701 -6.3082 -8.75c0 -3.51801 1.3952 -8.244 4.1293 -14.887c30.5052 -74.108 45.7579 -158.364 45.7579 -242.621c0 -84.2565 -15.2527 -168.513 -45.7579 -242.621c-2.7341 -6.64301 -4.1293 -11.369 -4.1293 -14.886
c0 -4.28299 2.0688 -6.77399 6.3082 -8.75098c1.8849 -0.874023 3.5872 -1.34201 5.2111 -1.34201c4.6196 0 8.6041 3.78601 14.3521 12.758c45.9 71.811 69.2997 140.826 76.4527 225.711c0.403 4.7605 0.603996 16.946 0.603996 29.1315
c0 12.1856 -0.200996 24.3711 -0.603996 29.1316c-7.153 84.8842 -30.5527 153.9 -76.4527 225.71c-6.9632 10.848 -8.6685 12.316 -14.5895 12.316c-1.9895 0 -3.7421 -0.330994 -4.9737 -0.899994z" />
    <glyph glyph-name="scripts.arpeggio" unicode="&#xe106;" horiz-adv-x="212" 
d="M102.411 268.247c-2.22701 -1.08902 -3.5531 -3.173 -3.7899 -6.11002c-0.0369034 -0.429993 -0.0602036 -0.817993 -0.0602036 -1.18298c0 -2.44901 1.0519 -3.83301 6.1231 -9.522c11.897 -13.411 17.949 -25.285 17.949 -35.184
c0 -3.108 -0.596001 -6.022 -1.79601 -8.72701c-5.921 -13.358 -21.4107 -34.153 -38.9844 -52.389c-26.1069 -27.114 -38.5592 -50.44 -38.5592 -73.0066c0 -6.09489 0.908401 -12.1343 2.7013 -18.178c4.4053 -14.9211 20.6527 -36.0948 49.3106 -64.279
c5.3797 -5.25341 8.4607 -7.5194 11.2277 -7.5194c1.399 0 2.719 0.57969 4.214 1.64572c2.091 1.48517 3.158 3.11546 3.158 5.11371c0 2.84541 -2.163 6.4369 -6.616 11.4178c-11.7132 13.1915 -17.6953 25.0666 -17.6953 34.9367
c0 3.1016 0.590706 6.0053 1.78001 8.6896c5.921 13.3579 21.4103 34.1527 38.9843 52.3894c26.289 27.284 37.089 47.132 38.084 70.105c0.0720062 1.57799 0.110992 3.105 0.110992 4.59099c0 20.926 -7.67 33.836 -37.39 65.988
c-15.691 16.977 -21.151 22.093 -25.51 22.093c-1.102 0 -2.134 -0.326996 -3.242 -0.871979z" />
    <glyph glyph-name="scripts.arpeggio.arrow.M1" unicode="&#xe107;" horiz-adv-x="212" 
d="M102.411 340.212c-2.5555 -1.25299 -3.8364 -3.28302 -3.8364 -5.879c0 -2.41 1.1032 -5.306 3.3144 -8.521c7.287 -10.697 10.69 -18.282 10.69 -27.662c0 -6.90201 -1.843 -14.777 -5.33701 -25.58c-1.94199 -5.96899 -4.31 -13.832 -5.305 -17.384l-1.753 -6.537
h-2.8419c-20.7474 0 -51.4895 9.28401 -73.8947 22.263c-4.3319 2.51801 -8.7218 3.68201 -12.7827 3.68201c-10.1491 0 -18.2436 -7.26999 -18.2436 -18.84c0 -5.73199 0.61579 -7.153 7.67369 -18c36.2369 -55.8 67.5948 -134.384 85.1685 -213.632
c2.8894 -13.0263 3.0315 -13.4053 6.2526 -17.6211c3.3395 -4.33421 8.9642 -6.50132 14.5892 -6.50132s11.25 2.16711 14.59 6.50132c3.221 4.21578 3.363 4.59478 6.252 17.6211c17.574 79.2476 48.932 157.879 85.169 213.632c7.058 10.847 7.673 12.268 7.673 18
c0 10.989 -7.957 18.947 -18.947 18.947c-4.5 0 -6.774 -0.709991 -12.079 -3.789c-16.295 -9.42599 -33.442 -15.869 -52.247 -19.658c-1.828 -0.358994 -3.048 -0.604996 -3.787 -0.604996c-0.643005 0 -0.923004 0.184998 -0.923004 0.643997
c0 0.613998 0.5 1.716 1.299 3.51401c5.698 12.91 8.582 24.292 8.582 34.627c0 15.525 -6.508 28.687 -19.761 41.115c-7.942 7.43399 -12.441 10.482 -16.197 10.482c-1.14999 0 -2.23 -0.286011 -3.31799 -0.819z" />
    <glyph glyph-name="scripts.arpeggio.arrow.1" unicode="&#xe108;" horiz-adv-x="212" 
d="M100.089 332.763c-2.74689 -0.85199 -6.9627 -3.742 -8.5732 -5.82599c-3.2211 -4.216 -3.3632 -4.595 -6.2526 -17.621c-17.5737 -79.248 -48.9316 -157.832 -85.1685 -213.632c-7.0579 -10.8474 -7.67369 -12.2684 -7.67369 -18
c0 -10.9895 7.9579 -18.9474 18.9473 -18.9474c4.5 0 6.7737 0.710598 12.079 3.7895c16.2947 9.4263 33.4421 15.8684 52.2473 19.6579c1.82809 0.359406 3.048 0.6054 3.7873 0.6054c0.642601 0 0.922096 -0.185898 0.922096 -0.644699
c0 -0.613594 -0.499695 -1.71529 -1.2988 -3.5133c-5.698 -12.9103 -8.5817 -24.2924 -8.5817 -34.627c0 -15.5258 6.5083 -28.6875 19.7606 -41.1151c7.791 -7.31255 12.5988 -10.5332 16.3808 -10.5332c1.461 0 2.768 0.48042 4.035 1.39106
c1.997 1.4233 2.993 3.20263 2.993 5.39729c0 2.33378 -1.126 5.13723 -3.372 8.48166c-7.304 10.7929 -10.7038 18.3711 -10.7038 27.7061c0 6.8891 1.8518 14.735 5.3508 25.536c1.943 5.9684 4.311 13.8316 5.306 17.3842l1.752 6.5369h2.842
c20.748 0 51.49 -9.28419 73.895 -22.2632c4.158 -2.417 8.40199 -3.5016 12.37 -3.5016c10.444 0 18.972 7.5162 18.972 18.0266c0 2.007 -0.310989 4.1232 -0.978989 6.3171c-0.710007 2.4158 -1.942 4.5 -7.01001 12.3158
c-36.237 55.7998 -67.595 134.384 -85.169 213.632c-3.41 15.347 -4.594 17.621 -11.51 21.979c-2.22099 1.388 -6.188 2.17297 -9.90199 2.17297c-1.991 0 -3.908 -0.225983 -5.44601 -0.704987z" />
    <glyph glyph-name="scripts.trill_element" unicode="&#xe109;" horiz-adv-x="261" 
d="M72.3316 124.864c-7.6737 -0.946999 -18.3316 -5.163 -26.1474 -10.326c-13.8316 -9.142 -52.721 -45.142 -53.5263 -49.5472c-0.14385 -0.744301 -0.21338 -1.4622 -0.21338 -2.1476c0 -4.5057 3.00435 -7.6103 7.65023 -7.6103c2.7 0 3.97894 0.805202 10.2316 6.3947
c13.1915 11.7137 25.0666 17.6958 34.9367 17.6958c3.1016 0 6.0053 -0.590706 8.6896 -1.78c13.3579 -5.92101 34.1527 -21.4105 52.3894 -38.9842c27.114 -26.1069 50.44 -38.5592 73.006 -38.5592c6.09499 0 12.135 0.908329 18.178 2.7013
c14.921 4.40526 36.095 20.6526 64.279 49.3105c5.254 5.3793 7.52002 8.4605 7.52002 11.2277c0 1.3996 -0.580017 2.7188 -1.64603 4.21441c-1.48499 2.091 -3.116 3.1581 -5.11398 3.1581c-2.845 0 -6.43701 -2.1637 -11.418 -6.616
c-13.191 -11.7137 -25.066 -17.6957 -34.936 -17.6957c-3.10201 0 -6.006 0.590698 -8.69 1.7799c-13.358 5.9211 -34.153 21.4106 -52.389 38.9843c-27.632 26.5845 -49.898 38.4055 -73.4382 38.4055c-3.0937 0 -6.2094 -0.204002 -9.36221 -0.606003z" />
    <glyph glyph-name="zero" unicode="0" horiz-adv-x="379" 
d="M173.031 467.137c-87.3004 -9.948 -160.058 -88.058 -171 -183.505c-1.35394 -11.879 -2.03056 -23.459 -2.03056 -34.741c0 -61.735 20.2624 -114.507 60.6727 -158.001c36.3552 -39.079 82.7643 -58.6184 129.173 -58.6184c46.41 0 92.819 19.5394 129.174 58.6184
c33.584 36.1425 53.195 78.1105 58.642 125.478c1.328 11.643 1.98801 23.044 1.98801 34.183c0 67.54 -24.276 125.452 -71.24 169.123c-33.043 30.78 -77.007 48.38 -118.997 48.38c-5.504 0 -10.975 -0.301971 -16.382 -0.916992zM203.441 443.926
c33.774 -5.021 42.821 -20.084 50.779 -84.742c4.71301 -38.06 7.07001 -73.622 7.07001 -109.184c0 -35.562 -2.35699 -71.124 -7.07001 -109.184c-7.38901 -60.016 -15.395 -75.9318 -41.684 -82.8476c-7.75 -2.0634 -15.568 -3.0507 -23.097 -3.0507
c-20.819 0 -39.442 7.5476 -48.382 20.7665c-9.569 14.1158 -17.242 61.2948 -21.6 132.632c-0.698997 11.61 -1.025 24.282 -1.025 37.484c0 66.461 8.276 146.355 19.025 171.884c7.283 17.273 26.839 27.356 51.446 27.356c4.67999 0 9.54201 -0.364014 14.538 -1.11401z
M189.825 0.0557118h-1h2h-1zM189.825 486.056h-1h2h-1z" />
    <glyph glyph-name="one" unicode="1" horiz-adv-x="254" 
d="M93.4857 459.416c-3.4578 -1.61099 -4.5947 -3.55298 -49.0736 -85.784l-44.1948 -81.711l-0.189473 -3.17398c-0.0186303 -0.318024 -0.0278526 -0.632996 -0.0278526 -0.942017c0 -6.77399 4.41618 -11.279 11.3015 -11.279c6.5842 0 6.6316 0.0950012 22.1211 23.685
c6.7737 10.278 19.8474 30.126 29.0368 44.052c9.1895 13.926 18.4263 27.995 20.5579 31.263l3.8369 5.92099l0.142097 -115.342c0.0185013 -19.363 0.0314026 -36.343 0.0314026 -51.258c0 -99.427 -0.573105 -107.024 -3.8683 -116.663
c-4.8315 -14.0684 -16.2 -25.1526 -36.0947 -35.1947c-6.2689 -3.1646 -9.623 -7.7099 -9.623 -12.2938c0 -2.6204 1.0961 -5.2535 3.3704 -7.6483c3.0326 -3.1556 -4.217 -3.3684 66.1359 -3.3684c10.965 0 23.814 0.00519943 38.88 0.00519943
c15.066 0 27.915 -0.00519943 38.879 -0.00519943c70.354 0 63.104 0.212799 66.137 3.3684c2.274 2.3948 3.37001 5.0279 3.37001 7.6483c0 4.5839 -3.354 9.1292 -9.623 12.2938c-19.895 10.0421 -31.263 21.1263 -36.095 35.1947
c-3.884 11.2738 -3.884 11.4628 -3.884 200.037c-0.0469971 169.721 0.237 155.274 -3.032 158.732c-3.013 3.181 -0.182999 3.366 -38.419 3.366l-17.333 -0.00299072c-48.1265 0 -50.5423 -0.0480042 -52.3423 -0.900024zM127.107 0.0557118h-1h1.99999h-0.999992z
M127.107 486.056h-1h1.99999h-0.999992z" />
    <glyph glyph-name="two" unicode="2" horiz-adv-x="337" 
d="M146.08 467.421c-60.1581 -5.58899 -112.453 -34.153 -122.874 -67.168c-1.8596 -5.89301 -2.7243 -11.744 -2.7243 -17.427c0 -31.445 26.4703 -57.761 57.3235 -57.761c6.4651 0 13.1225 1.155 19.7693 3.66101c23.2114 8.74399 35.4724 30.252 35.4724 51.679
c0 17.577 -8.251 35.099 -25.478 45.474c-1.21 0.722992 -1.973 1.19501 -1.973 1.552c0 0.649994 2.521 0.919006 9.458 1.62201c4.122 0.414978 8.161 0.617981 12.108 0.617981c49.8 0 84.868 -32.288 84.868 -77.957c0 -3.996 -0.268005 -8.09399 -0.819 -12.282
c-6.631 -50.637 -38.984 -93.506 -86.447 -114.395c-48.0316 -21.174 -83.1316 -53.669 -105.537 -97.721c-11.5582 -22.803 -19.2272 -52.9241 -19.2272 -70.7301c0 -6.4213 0.997341 -11.241 3.16929 -13.5385c2.34161 -2.4568 5.09541 -3.6537 7.91161 -3.6537
c4.134 0 8.4025 2.5791 11.6989 7.5379c7.3421 10.9895 29.3684 21.2684 52.0579 24.2526c5.184 0.677803 10.5919 1.00761 16.1485 1.00761c30.9488 0 66.5118 -10.2328 93.6988 -27.5813c13.263 -8.4789 18.569 -10.6579 28.09 -11.6052
c2.81601 -0.2896 5.636 -0.432198 8.455 -0.432198c47.429 0 94.361 40.3577 113.945 99.2429c1.48502 4.455 2.23203 7.841 2.23203 10.585c0 3.033 -0.913025 5.28101 -2.75302 7.31999c-2.30701 2.56001 -5.38699 3.774 -8.45599 3.774
c-4.37 0 -8.71701 -2.45999 -10.776 -6.995c-2.74701 -6.01601 -13.595 -13.026 -23.684 -15.347c-5.806 -1.33299 -11.576 -2.006 -17.385 -2.006c-14.43 0 -29.099 4.153 -45.142 12.664c-12.836 6.77299 -17.052 8.668 -26.573 11.842
c-14.859 4.91901 -30.382 7.321 -46.003 7.321c-36.121 0 -72.7659 -12.844 -102.924 -37.116l-3.079 -2.46301l2.3211 2.842c28.3263 35.147 67.1685 59.447 126.522 79.105c80.668 26.763 132.347 78.679 138.6 139.405c0.346985 3.375 0.516998 6.71698 0.516998 10.024
c0 57.627 -51.951 104.131 -129.407 113.987c-4.65199 0.572998 -19.268 0.975006 -30.545 0.975006c-5.489 0 -10.187 -0.0950012 -12.56 -0.312012zM168.704 0.0557118h-1h2h-1zM168.704 486.056h-1h2h-1z" />
    <glyph glyph-name="three" unicode="3" horiz-adv-x="301" 
d="M128.914 467.611c-0.899994 -0.0950012 -4.832 -0.522003 -8.763 -0.947998c-54.332 -5.73099 -107.432 -36.616 -117.427 -68.305c-1.85966 -5.89301 -2.72429 -11.744 -2.72429 -17.427c0 -31.444 26.4702 -57.761 57.3235 -57.761
c6.465 0 13.1225 1.15598 19.7692 3.66199c23.2483 8.74301 35.4523 30.319 35.4523 51.748c0 18.041 -8.65 35.978 -26.6418 46.067l-3.1736 1.79999l3.0789 0.569c9.7767 1.80402 18.9815 2.702 27.5895 2.702c30.26 0 53.133 -11.102 67.479 -32.971
c7.017 -10.666 10.523 -22.13 10.523 -33.968c0 -12.135 -3.683 -24.664 -11.044 -37.132c-16.011 -27.142 -41.448 -43.152 -71.195 -44.858c-11.6999 -0.662994 -15.7736 -3.742 -15.7736 -11.842c0 -7.95798 3.979 -11.036 15.2996 -11.794
c43.674 -2.93701 78.916 -41.732 85.832 -94.548c0.581009 -4.446 0.863998 -8.80499 0.863998 -13.061c0 -46.688 -34.031 -80.9742 -82.217 -80.9742c-1.526 0 -3.067 0.0344009 -4.621 0.103897c-11.0401 0.4897 -31.9545 4.4938 -31.9545 5.957
c0 0.0937042 0.0858002 0.177002 0.265404 0.248199c24.4481 9.9417 35.6531 30.7111 35.6531 51.2131c0 27.364 -19.9591 54.249 -55.0268 54.276h-0.0583992c-34.5559 0 -57.3617 -28.272 -57.3617 -57.646c0 -14.281 5.39026 -28.8218 17.4411 -40.5009
c33.7885 -32.7458 80.2848 -50.2287 128.62 -50.2287c21.934 0 44.247 3.6 65.922 11.0076c55.804 19.0938 89.813 60.083 89.813 104.617c0 8.276 -1.17499 16.675 -3.60199 25.078c-11.653 40.594 -52.674 76.737 -107.242 94.594l-2.55801 0.806l7.53101 2.32098
c50.258 15.158 89.148 45.095 99.616 76.642c1.65701 5.01797 2.45801 10.488 2.45801 16.19c0 16.308 -6.55801 34.511 -18.421 49.463c-23.21 29.226 -61.626 48.126 -109.989 54.047c-4.51199 0.53299 -22.613 1.039 -33.3 1.039
c-3.562 0 -6.3 -0.0559998 -7.437 -0.186005zM150.929 0.0557118h-1h2h-1zM150.929 486.056h-1h2h-1z" />
    <glyph glyph-name="four" unicode="4" horiz-adv-x="345" 
d="M127.659 459.416c-5.63699 -2.60498 -6.348 -4.83197 -6.869 -20.605c-2.747 -82.422 -32.0681 -163.422 -86.2102 -238.074c-6.5369 -8.953 -15.3948 -20.416 -19.5158 -25.2c-14.7197 -17.113 -15.064 -17.397 -15.064 -21.612
c0 -0.207001 0.000829405 -0.423004 0.000829405 -0.651001c0 -3.506 1.08947 -6.11101 3.36316 -8.29001c2.97328 -2.808 -2.04572 -2.98799 58.6052 -2.98799c8.9193 0 19.2588 0.0039978 31.2527 0.0039978h84.7421l-0.141998 -5.30499
c-0.0950012 -2.93701 -0.284012 -9.616 -0.379013 -14.827c-0.662994 -29.7943 -10.279 -44.1943 -39.458 -58.9259c-6.2 -3.1299 -9.51199 -7.6747 -9.51199 -12.2495c0 -2.6258 1.09099 -5.2615 3.35399 -7.6452c3.033 -3.1556 -4.217 -3.3684 66.137 -3.3684
c10.964 0 23.813 0.00519943 38.879 0.00519943c15.066 0 27.915 -0.00519943 38.879 -0.00519943c70.354 0 63.104 0.212799 66.137 3.3684c2.263 2.3837 3.354 5.0194 3.354 7.6452c0 4.5748 -3.31302 9.1196 -9.51202 12.2495
c-29.179 14.7316 -38.795 29.1316 -39.458 58.9259c-0.0950012 5.21101 -0.283997 11.89 -0.378998 14.827l-0.142029 5.30499h17.668c20.606 0 20.937 0.0469971 25.248 4.311c2.96799 2.98599 4.35901 6.90999 4.35901 10.801c0 6.04401 -3.358 12.009 -9.38 14.256
c-2.36902 0.900009 -3.60001 0.947998 -20.274 0.947998h-17.763v100.089c0 15.118 0.00500488 28.01 0.00500488 39.011c0 70.589 -0.212982 63.304 -3.36798 66.337c-2.134 2.01001 -5.21701 3.03201 -8.23502 3.03201c-2.742 0 -5.42999 -0.845001 -7.302 -2.55899
c-2.03699 -1.89401 -96.442 -107.952 -97.39 -109.468c-0.946991 -1.42099 -0.946991 -2.36899 -1.08899 -48.932l-0.0950012 -47.51h-67.074c-60.1016 0 -66.5124 0.0420074 -66.5124 0.687012c0 0.0379944 0.0213013 0.0769958 0.0549011 0.117996
c0.378998 0.473999 8.4316 9.56799 17.9526 20.274c9.5211 10.658 32.9685 36.994 52.0579 58.5c19.09 21.505 36.9 41.447 39.553 44.289c2.65199 2.89001 14.305 15.869 25.91 28.895c40.216 45.189 79.342 89.147 91.8 103.026
c13.548 15.158 14.258 16.153 14.258 20.842c0 4.927 -2.50998 8.858 -6.72598 10.611c-1.39401 0.596985 -34.009 0.873993 -68.644 0.873993c-39.505 0 -81.639 -0.360016 -83.077 -1.01602zM172.606 0.0557118h-1h2h-1zM172.606 486.056h-1h2h-1z" />
    <glyph glyph-name="five" unicode="5" horiz-adv-x="301" 
d="M35.0839 459.416c-2.3211 -1.09 -4.6895 -3.50497 -5.6842 -5.827c-0.710501 -1.84698 -15.8684 -176.163 -15.8684 -182.794c0.0473003 -6.86902 4.5473 -11.321 11.5105 -11.321c3.6 0 4.3105 0.330994 14.4 7.20001c25.3104 17.087 62.8172 28.677 91.2372 28.677
c3.01399 0 5.92599 -0.130005 8.71001 -0.39801c30.069 -2.89401 55.692 -57.281 55.692 -115.819c0 -2.786 -0.0579987 -5.582 -0.175995 -8.381c-2.407 -55.784 -42.089 -100.337 -85.723 -100.337c-4.46 0 -8.96 0.465401 -13.4665 1.43169
c-7.6014 1.5759 -25.2259 7.8231 -25.2259 8.8011c0 0.0214996 0.00859833 0.0405045 0.0259018 0.0568008c0.094696 0.142097 1.75259 0.663101 3.69469 1.1842c25.4745 7.0562 37.8058 28.6285 37.8058 50.5325c0 24.121 -14.9528 48.643 -43.7742 54.625
c-4.1368 0.85701 -8.1663 1.26201 -12.0643 1.26201c-32.7154 0 -56.1775 -28.534 -56.1775 -58.305c0 -14.165 5.31087 -28.609 17.4628 -40.3935c38.0509 -36.9398 84.8422 -57.4281 129.128 -57.4281c8.584 0 17.074 0.769699 25.388 2.3387
c79.519 14.943 129.768 78.1389 129.768 142.882c0 27.816 -9.27502 55.918 -29.489 80.602c-32.018 39.093 -84.298 60.277 -137.922 60.277c-30.39 0 -61.2113 -6.80402 -89.0205 -21.008c-3.3871 -1.73999 -6.2435 -3.03699 -6.5177 -3.03699
c-0.00959778 0 -0.0159988 0.00201416 -0.0191994 0.00500488c-0.00409698 0.0039978 -0.00619888 0.0329895 -0.00619888 0.0849915c0 2.90601 6.4051 79.356 6.6378 79.589l0.00800323 0.00100708c0.202797 0 4.021 -1.073 8.5657 -2.46399
c31.9737 -9.60602 69.9261 -14.616 103.502 -14.616c24.374 0 46.441 2.63998 62.24 8.07898c26.953 9.28403 47.226 29.652 65.132 65.368c5.02701 10.026 7.323 15.69 7.323 19.735c0 2.77798 -1.08301 4.793 -3.108 6.93399c-2.11499 2.22 -4.21701 3.302 -7.41599 3.302
c-2.60202 0 -5.93002 -0.716003 -10.584 -2.11801c-38.439 -11.487 -77.826 -17.23 -115.685 -17.23c-37.859 0 -74.191 5.74298 -106.52 17.23c-4.1914 1.48199 -7.1298 2.19299 -9.5283 2.19299c-1.5861 0 -2.936 -0.310974 -4.2559 -0.914001zM153.742 58.3947
c0 -0.284199 -3.60001 -2.1315 -4.121 -2.1315c-0.0200043 0.0048027 -0.029007 0.0147018 -0.029007 0.0292015c0 0.1264 0.719009 0.6026 1.78101 1.155c1.56999 0.847401 2.099 1.1333 2.278 1.1333c0.0910034 0 0.0910034 -0.0741005 0.0910034 -0.186001z
M150.873 0.0557118h-1h2h-1zM150.873 486.056h-1h2h-1z" />
    <glyph glyph-name="six" unicode="6" horiz-adv-x="348" 
d="M192.789 467.611c-0.757004 -0.0950012 -4.168 -0.522003 -7.578 -0.947998c-61.248 -7.24701 -122.921 -47.463 -156.079 -101.795c-20.5579 -33.631 -29.1316 -66.505 -29.1316 -111.552c0 -56.795 14.6842 -100.99 46.8 -140.921
c31.2158 -38.7476 74.179 -66.9792 118.421 -77.6845c7.19801 -1.7435 14.999 -2.5686 23.184 -2.5686c50.739 0 116.177 31.7137 143.506 72.9111c11.072 16.698 16.693 36.591 16.693 56.243c0 16.248 -3.84302 32.331 -11.625 46.309
c-18.095 32.542 -59.495 60.3 -109.137 73.184c-13.227 3.444 -26.013 5.18399 -38.864 5.18399c-20.56 0 -41.287 -4.45499 -64.257 -13.52c-3.553 -1.42099 -6.584 -2.55801 -6.774 -2.55801c-0.108002 0 -0.157997 0.506012 -0.157997 1.43002
c0 6.77197 2.692 35.964 4.943 52.096c6.72599 48.316 17.384 80.621 32.257 97.816c13.324 15.41 33.877 23.417 56.881 23.417c15.108 0 31.273 -3.45398 47.141 -10.533c1.95901 -0.873993 2.94202 -1.32401 2.94202 -1.68399
c0 -0.363007 -0.993988 -0.63501 -2.98999 -1.15802c-23.992 -6.18799 -37.496 -28.777 -37.496 -51.652c0 -15.648 6.319 -31.429 19.922 -42.185c10.823 -8.56198 22.808 -12.322 34.462 -12.322c30.108 0 58.016 25.093 58.016 57.315
c0 5.746 -0.888 11.72 -2.80899 17.818c-8.953 28.421 -55.658 59.258 -100.279 66.315c-4.41701 0.701996 -20.537 1.27301 -30.518 1.27301c-3.505 0 -6.25301 -0.0700073 -7.472 -0.230011zM200.747 262.079c21.458 -3.742 30.932 -18.332 37.469 -57.505
c2.40599 -14.436 3.632 -27.574 3.632 -40.76c0 -17.966 -2.27701 -36.023 -6.94801 -57.577c-8.526 -39.6002 -18.284 -50.5896 -44.953 -50.637l-0.35701 -0.000598907c-27.533 0 -37.432 10.9717 -46.016 50.6376c-4.67201 21.554 -6.948 39.611 -6.948 57.577
c0 13.186 1.226 26.324 3.63199 40.76c6.489 38.889 16.01 53.668 37.042 57.458c2.567 0.478973 7.235 0.715973 11.882 0.715973c4.53 0 9.03999 -0.224976 11.565 -0.668976zM174.302 0.0557118h-1h2h-1zM174.302 486.056h-1h2h-1z" />
    <glyph glyph-name="seven" unicode="7" horiz-adv-x="325" 
d="M113.779 468.037c-18.7579 -1.75299 -26.479 -3.41098 -46.8948 -10.042c-14.8642 -4.80701 -23.8275 -7.164 -30.5615 -7.164c-6.2062 0 -10.5189 2.00201 -15.8122 5.93201c-3.2624 2.41699 -6.6634 3.58701 -9.7498 3.58701
c-4.35235 0 -8.07886 -2.32602 -9.90807 -6.76102c-0.568421 -1.34998 -0.852632 -27.627 -0.852632 -53.905c0 -26.277 0.284211 -52.555 0.852632 -53.905c1.8006 -4.35599 6.27207 -6.80701 10.7507 -6.80701c2.8262 0 5.6552 0.976013 7.8178 3.065
c2.1789 2.08401 2.5578 2.88901 4.8315 10.752c8.3369 28.895 20.4158 47.653 32.8737 50.969c1.5148 0.403992 3.1252 0.602997 4.8156 0.602997c8.6174 0 19.3159 -5.16699 30.0476 -14.672c24.1345 -21.346 54.4305 -31.997 86.2365 -31.997
c33.055 0 67.739 11.503 98.832 34.461l4.31 3.22098l-2.84201 -5.069c-20.605 -36.379 -45.521 -65.889 -85.405 -101.226c-78.158 -69.158 -124.437 -153.474 -126.568 -230.495c-0.0355988 -1.3447 -0.055397 -2.5793 -0.055397 -3.7151
c0 -9.4265 1.3619 -12.0443 6.3081 -14.2849c1.4921 -0.686802 31.1917 -1.0303 60.8857 -1.0303c29.695 0 59.383 0.343498 60.851 1.0303c5.92099 2.7474 6.44199 4.5 6.91599 23.9684c1.04201 43.7214 7.81601 84.7424 20.416 123.394
c9 27.569 18.094 46.516 37.8 78.632c21.458 35.053 45.805 99.379 63.189 167.258c1.88901 7.34 2.88901 12.464 2.88901 16.17c0 5.31 -2.05301 7.71002 -6.48901 9.55103c-1.664 0.696991 -3.216 1.056 -4.70999 1.056c-3.991 0 -7.569 -2.565 -11.774 -8.11401
c-13.642 -18.142 -30.884 -28.326 -49.737 -29.416c-1.01701 -0.0580139 -1.981 -0.0890198 -2.90201 -0.0890198c-7.271 0 -11.866 1.93399 -18.887 7.526c-29.722 23.709 -70.23 38.051 -105.836 38.051c-3.946 0 -7.833 -0.175995 -11.638 -0.535004zM162.876 0.0557118
h-1h2h-1zM162.876 486.056h-1h2h-1z" />
    <glyph glyph-name="eight" unicode="8" horiz-adv-x="359" 
d="M160.31 467.184c-83.7619 -8.323 -138.042 -64.658 -138.042 -123.554c0 -24.903 9.7048 -50.264 30.989 -72.646l4.5474 -4.784l-5.0211 -3.647c-35.7404 -26.209 -52.7833 -60.549 -52.7833 -94.755c0 -47.895 33.4138 -95.5268 95.6991 -120.203
c26.7629 -10.6081 55.6399 -15.7067 84.1839 -15.7067c55.067 0 108.891 18.9768 143.895 53.9804c24.302 24.2806 36.204 53.2456 36.204 81.9056c0 35.528 -18.289 70.588 -53.92 95.679l-3.884 2.74701l3.93198 4.121c20.934 21.775 31.37 48 31.37 74.233
c0 27.01 -11.063 54.029 -33.123 76.209c-29.711 29.878 -76.636 47.37 -124.745 47.37c-6.42599 0 -12.873 -0.312988 -19.302 -0.949005zM195.315 435.732c41.281 -8.66 68.827 -48.347 68.827 -91.229c0 -11.54 -1.995 -23.311 -6.25299 -34.771
c-1.80002 -4.785 -6.774 -15.158 -8.14801 -16.958l-0.804993 -1.09l-12.79 6.34802c-57.505 28.421 -105.015 65.7 -117.378 92.084c-1.346 2.87799 -1.976 5.78 -1.976 8.65302c0 19.985 30.481 38.595 62.506 38.595c5.341 0 10.724 -0.517029 16.017 -1.63202z
M103.041 235.884c3.411 -1.563 8.953 -3.83701 12.316 -5.06801c74.653 -27.521 124.863 -65.984 138.126 -105.869c1.239 -3.733 1.83099 -7.449 1.83099 -11.098c0 -27.3251 -33.15 -50.9598 -75.773 -51.0016c-68.123 0 -116.578 51.0426 -116.578 105.232
c0 19.173 6.066 38.74 19.4732 56.579c3.81741 5.121 12.7591 14.314 13.8301 14.314c0.0186996 0 0.0350037 -0.00300598 0.0489044 -0.00900269c0.331596 -0.141998 3.3631 -1.51599 6.7261 -3.07899zM179.991 0.0557118h-1h2h-1zM179.991 486.056h-1h2h-1z" />
    <glyph glyph-name="nine" unicode="9" horiz-adv-x="348" 
d="M146.104 467.374c-50.4474 -5.77899 -105.726 -36.711 -129.411 -72.427c-11.072 -16.698 -16.6935 -36.591 -16.6935 -56.243c0 -16.248 3.84281 -32.331 11.6251 -46.309c18.0947 -32.542 59.4947 -60.3 109.137 -73.184
c13.227 -3.444 26.013 -5.18401 38.864 -5.18401c20.56 0 41.287 4.455 64.257 13.52c3.55301 1.42101 6.584 2.558 6.774 2.558c0.108002 0 0.158005 -0.505997 0.158005 -1.42999c0 -6.772 -2.692 -35.964 -4.94301 -52.096
c-6.726 -48.316 -17.384 -80.6211 -32.257 -97.8158c-13.324 -15.4103 -33.877 -23.4176 -56.87 -23.4176c-15.102 0 -31.256 3.4541 -47.1042 10.5333c-1.9894 0.876404 -2.9842 1.3264 -2.9842 1.6875c0 0.361198 0.994797 0.633598 2.9842 1.1547
c22.2982 5.7326 37.7982 28.294 37.7982 51.7659c0 4.65 -0.608002 9.336 -1.89301 13.934c-7.481 26.923 -30.1229 40.159 -53.03 40.159c-24.0864 0 -48.4661 -14.634 -55.8225 -43.38c-1.3184 -5.166 -1.9795 -10.17 -1.9795 -15.022
c0 -16.5918 7.7297 -31.4118 23.3426 -44.8991c30.2484 -26.0876 65.7544 -39.3437 103.882 -39.3437c21.342 0 43.505 4.1529 66.028 12.5332c72.853 27.0474 125.526 88.4846 137.748 160.532c1.97601 11.601 3.13699 30.45 3.13699 46.577
c0 7.84201 -0.274994 15.041 -0.863983 20.449c-3.884 36 -12.979 64.137 -29.937 92.321c-35.919 59.733 -105.174 103.648 -160.778 103.648c-3.791 0 -7.519 -0.20401 -11.169 -0.621002zM172.393 443.311c18.048 -4.974 25.437 -16.153 32.637 -49.548
c4.672 -21.554 6.948 -39.611 6.948 -57.577c0 -13.186 -1.226 -26.324 -3.632 -40.76c-7.437 -44.763 -18.758 -58.215 -48.979 -58.215c-32.779 0 -45.047 17.857 -51.347 74.842c-0.787994 7.02499 -1.158 14.525 -1.158 22.235c0 40.477 10.194 86.744 23.563 100.591
c6.09999 6.341 17.739 10.049 29.302 10.049c4.332 0 8.65199 -0.52002 12.666 -1.617zM174.426 0.0557118h-1h2h-1zM174.426 486.056h-1h2h-1z" />
    <glyph glyph-name="period" unicode="." horiz-adv-x="129" 
d="M53.2745 167.768c-33.1294 -5.567 -53.2745 -34.547 -53.2745 -64.237c0 -16.029 5.872 -32.2654 18.7429 -45.1363c12.7408 -12.7408 29.1931 -18.8105 45.5083 -18.8105c23.1727 0 46.0688 12.2445 57.6598 35.0105c4.94199 9.69839 7.18999 19.698 7.18999 29.3943
c0 34.261 -28.069 64.732 -64.572 64.732c-3.6728 0 -7.431 -0.307999 -11.2545 -0.952988z" />
    <glyph glyph-name="comma" unicode="," horiz-adv-x="142" 
d="M58.0454 168.053c-34.4709 -3.56099 -58.0454 -32.585 -58.0454 -64.428c0 -9.2448 1.98716 -18.7274 6.27174 -27.8934c10.0421 -21.5053 33.3474 -36.5211 56.6053 -36.5211h4.9263l0.947403 -1.8473c4.2481 -8.3367 6.2562 -17.4566 6.2562 -26.8276
c0 -29.6046 -20.0421 -61.7161 -52.8194 -79.5619c-6.3473 -3.4579 -7.2 -4.5 -7.2 -8.7632c0 -4.9794 1.9382 -7.4736 5.8504 -7.4736c2.8984 0 6.8802 1.3689 11.9602 4.1105c67.2329 36.331 109.277 97.8854 109.277 155.559c0 9.2499 -1.08099 18.4 -3.314 27.3304
c-9.845 39.336 -40.8057 66.648 -74.3238 66.648c-2.1219 0 -4.2541 -0.110001 -6.3918 -0.332001z" />
    <glyph glyph-name="plus" unicode="+" horiz-adv-x="235" 
d="M110.676 366.621c-5.542 -1.84702 -10.042 -5.39999 -12.7892 -10.089c-2.9948 -5.14102 -3.0792 -3.996 -3.0792 -39.158l0.000297546 -6.69501v-37.942h-37.9421h-6.6949c-35.1618 0 -34.0173 -0.0839844 -39.1577 -3.07901
c-7.34215 -4.33398 -11.0132 -11.996 -11.0132 -19.658c0 -7.662 3.67105 -15.324 11.0132 -19.658c5.1404 -2.995 3.9959 -3.07899 39.1577 -3.07899h6.6949h37.9421v-37.942l-0.000297546 -6.92799c0 -34.675 0.0839005 -33.828 2.9371 -38.688
c4.3623 -7.48401 12.1183 -11.238 19.8583 -11.238c7.64301 0 15.27 3.65901 19.6 11.001c2.995 5.14099 3.07899 3.996 3.07899 39.158v6.69499v37.942h37.942h6.69501c35.161 0 34.017 0.0839996 39.157 3.07899c7.343 4.33 11.002 11.957 11.002 19.599
c0 7.74101 -3.754 15.497 -11.239 19.859c-4.85901 2.85303 -4.01201 2.93701 -38.687 2.93701h-6.92799h-37.942v37.942v6.92801c0 34.675 -0.0839996 33.828 -2.937 38.688c-4.088 7.02298 -12.199 11.335 -20.193 11.335c-2.196 0 -4.383 -0.325012 -6.476 -1.009z" />
    <glyph glyph-name="hyphen" unicode="-" horiz-adv-x="234" 
d="M15.887 271.884c-10.6049 -3.52701 -15.887 -12.82 -15.887 -22.051c0 -9.364 5.4361 -18.663 16.266 -21.812c1.9894 -0.591995 51.596 -0.888 101.209 -0.888c49.612 0 99.23 0.296005 101.244 0.888c10.8 3.15001 16.2 12.565 16.2 21.979
s-5.40001 18.829 -16.2 21.979c-1.95599 0.567993 -47.943 0.84201 -95.636 0.84201c-51.6613 0 -105.324 -0.321014 -107.196 -0.937012z" />
    <glyph glyph-name="scripts.downbow" unicode="&#xe10a;" horiz-adv-x="167" 
d="M-158.495 351.476c-3.31601 -1.27902 -6.963 -4.974 -8.242 -8.33701c-0.757996 -2.013 -1.13699 -84.446 -1.13699 -166.879c0 -82.4331 0.378998 -164.866 1.13699 -166.879c2.248 -6.02281 8.21201 -9.38085 14.256 -9.38085c3.89101 0 7.815 1.39162 10.802 4.3598
c4.01401 4.05441 4.32001 -2.43714 4.32001 57.2417c0 10.7421 -0.00900269 23.6282 -0.00900269 39.1055v88.816h137.368h137.368v-88.816c0 -15.4773 -0.00900269 -28.3634 -0.00900269 -39.1055c0 -59.6788 0.306 -53.1873 4.32001 -57.2417
c2.987 -2.96818 6.911 -4.3598 10.802 -4.3598c6.04399 0 12.008 3.35804 14.256 9.38085c0.757996 2.01315 1.13699 84.446 1.13699 166.879c0 82.433 -0.378998 164.866 -1.13699 166.879c-1.27901 3.45798 -4.92599 7.10498 -8.384 8.384
c-1.974 0.727997 -78.9934 1.095 -156.597 1.095c-78.8452 0 -158.293 -0.378998 -160.251 -1.142z" />
    <glyph glyph-name="scripts.upbow" unicode="&#xe10b;" horiz-adv-x="125" 
d="M-118.624 408.459c-4.027 -1.84802 -6.395 -5.68503 -6.395 -10.279c0 -2.17899 107.384 -369.758 114.016 -390.221c1.64441 -5.07748 6.38122 -7.95866 11.1606 -7.95866c3.068 0 6.15355 1.18724 8.44991 3.74287c0.13895 0.15406 0.23822 0.19542 0.319241 0.19542
c0.0939693 0 0.16338 -0.05567 0.241659 -0.05567c0.91238 0 3.03028 7.56308 59.3128 198.997c49.09 167.034 56.538 191.998 56.538 197.632c0 1.37302 -0.443001 1.59799 -0.833 2.452c-1.991 4.28702 -6.28799 6.41901 -10.553 6.41901
c-4.358 0 -8.68301 -2.22699 -10.478 -6.65601c-0.378998 -0.899994 -18.3319 -61.721 -39.9319 -135.095c-21.5526 -73.421 -39.3631 -133.484 -39.5053 -133.484c-0.142099 0 -17.9526 60.063 -39.5052 133.484c-42.5842 144.806 -39.9316 136.042 -42.1105 138.364
c-3.1436 3.27798 -2.2851 3.36301 -27.6566 3.36301h-4.4119c-25.0576 0 -26.9056 -0.0950012 -28.6576 -0.899994z" />
    <glyph glyph-name="brackettips.down" unicode="&#xe10c;" horiz-adv-x="411" 
d="M3.64737 92.0368c-0.85263 -0.4263 -2.03684 -1.421 -2.60526 -2.2263l-1.04211 -1.4684v-45.7105v-45.7105l1.04211 -1.46842c2.13157 -2.98421 3.07894 -3.17368 19.3263 -3.55263c29.5579 -0.710529 62.7158 -4.2632 89.2896 -9.5211
c2.747 -0.521 5.826 -1.1368 6.868 -1.3263c1.042 -0.189402 3.6 -0.710501 5.685 -1.1368c93.126 -19.7526 185.636 -61.579 271.657 -122.921l6.34799 -4.54799h3.12601c4.76599 0 7.69598 3.19699 7.69598 7.06799c0 1.86101 -0.677002 3.877 -2.15399 5.769
c-26.763 34.295 -88.342 93.0792 -131.068 125.005c-3.79001 2.79474 -7.62701 5.68421 -8.52701 6.39474c-25.294 19.3263 -68.257 44.5737 -100.894 59.3526c-30.221 13.6421 -64.942 24.9158 -93.3161 30.2211c-21.9276 4.0894 -47.7645 6.7882 -61.7919 6.7882
c-4.82053 0 -8.24641 -0.318695 -9.63963 -1.0093z" />
    <glyph glyph-name="brackettips.up" unicode="&#xe10d;" horiz-adv-x="410" 
d="M400.085 147.126c-0.710999 -0.379013 -3.78998 -2.51001 -6.86899 -4.68901c-84.315 -60.3949 -179.384 -103.263 -271.752 -122.542c-2.606 -0.521 -6.111 -1.2789 -7.81599 -1.6579c-22.8791 -5.021 -63.3317 -9.42627 -93.0791 -10.1368
c-16.2473 -0.378951 -17.1947 -0.56842 -19.3263 -3.55263l-1.0421 -1.46842l-0.142106 -45.1422c-0.0292107 -10.2821 -0.0584214 -18.3306 -0.0584214 -24.6495c0 -24.4212 0.436319 -23.0065 2.99526 -24.8505c1.20865 -0.846001 1.66344 -1.0067 9.14604 -1.0067
c1.3149 0 2.8469 0.00489807 4.6382 0.012001c11.7473 0 16.0579 0.284203 30.5526 1.8947c48.1263 5.3527 103.026 23.3527 153 50.3053c18.142 9.7579 45 26.3368 57.837 35.6684c0.899994 0.66315 5.021 3.64736 9.189 6.58421
c45.853 32.7316 112.121 94.8316 141.727 132.821c1.32001 1.694 1.89102 3.55299 1.89102 5.33099c0 4.24701 -3.25601 8.035 -7.33701 8.035c-1.138 0 -2.341 -0.294006 -3.55402 -0.955994z" />
    <glyph glyph-name="scripts.rcomma" unicode="&#xe10e;" horiz-adv-x="167" 
d="M67.3082 154.955c-39.4228 -3.79001 -67.3082 -36.842 -67.3082 -73.8504c0 -7.8592 1.25757 -15.8968 3.92929 -23.8705c9.66311 -28.8947 38.2263 -50.021 67.5947 -50.0684h4.5948l1.1368 -1.8c8.9641 -13.6991 13.2064 -29.0443 13.2064 -44.7045
c0 -37.1353 -23.8551 -76.0412 -65.1696 -98.9642c-6.1967 -3.431 -8.8744 -6.06001 -8.8744 -9.263c0 -1.13101 0.3337 -2.334 0.963902 -3.668c1.2564 -2.64401 2.8617 -4.04901 5.5742 -4.04901c4.1392 0 10.8567 3.27101 22.8469 10.396
c75.759 45.0935 121.893 114.632 121.893 183.25c0 1.4436 -0.0200043 2.8868 -0.0610046 4.3293c-1.812 62.03 -44.607 112.591 -93.5142 112.591c-2.259 0 -4.531 -0.108002 -6.8126 -0.328003z" />
    <glyph glyph-name="scripts.lcomma" unicode="&#xe10f;" horiz-adv-x="167" 
d="M134.997 152.157c-75.9316 -39.269 -129.032 -109.658 -134.526 -178.39c-0.316501 -3.9411 -0.470694 -7.8422 -0.470694 -11.6956c0 -65.5975 44.6837 -117.379 94.0257 -117.379c11.0943 0 22.4243 2.617 33.5343 8.285c25.997 13.257 40.174 39.422 40.174 66.0835
c0 17.1578 -5.87099 34.5216 -18.242 48.7845c-13.074 15.0632 -34.153 25.0106 -53.195 25.0106h-4.5947l-1.1369 1.8c-8.9641 13.6991 -13.2063 29.0443 -13.2063 44.7044c0 37.1354 23.8549 76.041 65.1699 98.964c6.196 3.431 8.87399 6.06 8.87399 9.263
c0 1.131 -0.334 2.334 -0.964005 3.66901c-1.30499 2.709 -3.12799 4.05 -5.843 4.05c-2.40999 0 -5.52199 -1.056 -9.599 -3.15001z" />
    <glyph glyph-name="scripts.rvarcomma" unicode="&#xe110;" horiz-adv-x="58" 
d="M17.747 138.697c-11.8895 -2.27301 -21.9316 -11.179 -25.8158 -22.831c-0.947371 -2.795 -29.0842 -138.316 -41.4948 -199.8c-1.5158 -7.6737 -4.3105 -21.4107 -6.1579 -30.5057c-1.788 -8.73 -2.7663 -14.467 -2.7663 -18.206c0 -5.573 2.1728 -6.709 7.0769 -6.709
c5.2105 0 5.4 0.283997 14.6368 21.173c4.1211 9.332 17.3369 39.2214 29.4158 66.4582c60.2649 136.167 65.8461 148.07 65.8461 153.245c0 1.159 -0.279499 1.98 -0.2882 3.782c-0.126801 19.439 -15.2964 34.052 -33.6693 34.052
c-2.2213 0 -4.4894 -0.212997 -6.7833 -0.65799z" />
    <glyph glyph-name="scripts.lvarcomma" unicode="&#xe111;" horiz-adv-x="58" 
d="M47.5629 138.542c-2.3684 -1.13701 -2.8894 -2.132 -10.9421 -20.368c-4.121 -9.332 -17.3368 -39.2214 -29.4158 -66.4582c-60.2649 -136.167 -65.8461 -148.07 -65.8461 -153.245c0 -1.159 0.279602 -1.98 0.2882 -3.782
c0.107201 -20.111 15.8386 -34.026 33.6239 -34.026c5.7989 0 11.8162 1.479 17.5814 4.705c6.53685 3.64801 12.5526 11.132 15.0632 18.758c0.947371 2.795 29.0842 138.316 41.4947 199.8c1.5158 7.6737 4.3105 21.4107 6.1579 30.5057
c2.1573 10.531 3.0729 15.397 3.0729 18.167c0 1.853 -0.4095 2.767 -1.1308 3.811c-1.3396 1.84999 -3.8817 2.927 -6.4119 2.927c-1.2276 0 -2.4523 -0.253006 -3.5355 -0.794998z" />
    <glyph glyph-name="scripts.caesura" unicode="&#xe112;" horiz-adv-x="457" 
d="M293.589 301.492c-1.327 -0.520996 -3.36298 -1.84799 -4.5 -2.98401c-2.32098 -2.27399 -286.863 -475.958 -288.19 -479.7c-0.616791 -1.745 -0.899188 -3.457 -0.899188 -5.101c0 -8.64301 7.80197 -15.43 15.8551 -15.43c3.4755 0 6.9978 1.26401 9.9599 4.188
c2.321 2.274 286.863 475.958 288.189 479.7c0.621002 1.74298 0.90799 3.47299 0.90799 5.146c0 8.34201 -7.13098 15.273 -15.562 15.273c-1.87701 0 -3.819 -0.344025 -5.76102 -1.09201zM435.694 301.492c-1.32599 -0.520996 -3.36301 -1.84799 -4.5 -2.98401
c-2.32101 -2.27399 -286.863 -475.958 -288.19 -479.7c-0.615997 -1.745 -0.899002 -3.457 -0.899002 -5.101c0 -8.64301 7.802 -15.43 15.855 -15.43c3.476 0 6.99799 1.26401 9.95999 4.188c2.321 2.274 286.863 475.958 288.19 479.7
c0.620026 1.74298 0.907013 3.47299 0.907013 5.146c0 8.34201 -7.13101 15.273 -15.561 15.273c-1.87799 0 -3.82001 -0.344025 -5.76199 -1.09201z" />
    <glyph glyph-name="scripts.caesura.straight" unicode="&#xe113;" horiz-adv-x="457" 
d="M293.589 301.492c-1.327 -0.520996 -3.36298 -1.84799 -4.5 -2.98401c-2.32098 -2.27399 -286.863 -475.958 -288.19 -479.7c-0.616791 -1.745 -0.899188 -3.457 -0.899188 -5.101c0 -8.64301 7.80197 -15.43 15.8551 -15.43c3.4755 0 6.9978 1.26401 9.9599 4.188
c2.321 2.274 286.863 475.958 288.189 479.7c0.621002 1.74298 0.90799 3.47299 0.90799 5.146c0 8.34201 -7.13098 15.273 -15.562 15.273c-1.87701 0 -3.819 -0.344025 -5.76102 -1.09201zM435.694 301.492c-1.32599 -0.520996 -3.36301 -1.84799 -4.5 -2.98401
c-2.32101 -2.27399 -286.863 -475.958 -288.19 -479.7c-0.615997 -1.745 -0.899002 -3.457 -0.899002 -5.101c0 -8.64301 7.802 -15.43 15.855 -15.43c3.476 0 6.99799 1.26401 9.95999 4.188c2.321 2.274 286.863 475.958 288.19 479.7
c0.620026 1.74298 0.907013 3.47299 0.907013 5.146c0 8.34201 -7.13101 15.273 -15.561 15.273c-1.87799 0 -3.82001 -0.344025 -5.76199 -1.09201z" />
    <glyph glyph-name="scripts.caesura.curved" unicode="&#xe114;" horiz-adv-x="370" 
d="M202.056 310.159c-12.079 -1.37399 -18.758 -9.427 -20.179 -24.348c-10.563 -110.51 -80.053 -293.873 -174.411 -459.947c-5.04486 -8.907 -7.46623 -14.492 -7.46623 -18.863c0 -3.509 1.56044 -6.237 4.57676 -9.274c3.12416 -3.10501 6.75684 -4.61 10.4285 -4.61
c5.5695 0 11.2289 3.463 15.3399 10.057c62.4789 100.706 109.516 193.169 144.569 284.164c25.105 65.1315 44.336 133.01 50.589 178.436c0.662994 4.785 1.42099 9.75803 1.75299 11.037c0.649002 2.74799 0.958008 5.43201 0.958008 8.009
c0 14.441 -9.686 25.505 -23.244 25.505c-0.953003 0 -1.925 -0.0540161 -2.914 -0.166016zM344.161 310.159c-12.079 -1.37399 -18.758 -9.427 -20.179 -24.348c-10.563 -110.51 -80.053 -293.873 -174.411 -459.947c-5.04401 -8.907 -7.466 -14.492 -7.466 -18.863
c0 -3.509 1.561 -6.237 4.57701 -9.274c3.12399 -3.10501 6.75699 -4.61 10.429 -4.61c5.569 0 11.229 3.463 15.339 10.057c62.479 100.706 109.516 193.169 144.569 284.164c25.105 65.1315 44.337 133.01 50.589 178.436c0.662994 4.785 1.42099 9.75803 1.75299 11.037
c0.649994 2.74799 0.958008 5.43201 0.958008 8.009c0 14.441 -9.686 25.505 -23.244 25.505c-0.953003 0 -1.92502 -0.0540161 -2.914 -0.166016z" />
    <glyph glyph-name="noteheads.sM1" unicode="&#xe115;" horiz-adv-x="663" 
d="M13.0087 173.574c-5.44741 -1.705 -10.5632 -6.916 -12.2685 -12.458c-0.491584 -1.662 -0.740235 -79.5705 -0.740235 -158.371c0 -80.6553 0.260491 -162.246 0.787603 -163.971c2.58456 -8.534 10.4329 -13.167 18.3269 -13.167
c5.995 0 12.0163 2.67201 15.7784 8.33501c2.8769 4.336 3.0849 -5.748 3.0849 101.16c0 18.0689 -0.0059967 39.4797 -0.0059967 64.8669c0 25.3872 0.0059967 46.798 0.0059967 64.8668c0 106.907 -0.208 96.8235 -3.0849 101.159
c-2.4158 3.60001 -6.1106 6.395 -10.0895 7.62601c-1.3541 0.397003 -3.5826 0.597992 -5.8179 0.597992c-2.3002 0 -4.6076 -0.212997 -5.9768 -0.644989zM81.2192 173.574c-5.4474 -1.705 -10.5632 -6.916 -12.2684 -12.458
c-0.4916 -1.662 -0.740295 -79.5705 -0.740295 -158.371c0 -80.6553 0.260498 -162.246 0.787598 -163.971c2.5846 -8.534 10.4329 -13.167 18.3269 -13.167c5.995 0 12.0163 2.67201 15.778 8.33501c3.269 4.974 3.079 -0.236008 3.12701 76.974
c0 55.8829 0.0779953 67.6757 0.556 67.6757c0.0469971 0 0.098999 -0.116499 0.153999 -0.317801c17.811 -66.2448 114.708 -113.044 224.555 -113.044c14.02 0 28.251 0.762009 42.556 2.34401c94.5 10.468 167.258 54.6631 182.321 110.7
c0.0549927 0.201302 0.106995 0.317801 0.153992 0.317801c0.478027 0 0.555969 -11.7928 0.555969 -67.6757c0.0480347 -77.21 -0.141968 -72 3.12701 -76.974c3.71802 -5.589 9.79303 -8.384 15.868 -8.384c6.07495 0 12.15 2.795 15.868 8.384
c2.87701 4.336 3.08502 -5.748 3.08502 101.16l-0.00604248 64.8669l0.00604248 64.8668c0 106.907 -0.208008 96.8235 -3.08502 101.159c-3.77002 5.65601 -9.63098 8.44701 -15.573 8.44701c-6.45001 0 -12.995 -3.289 -17.063 -9.77299
c-2.22705 -3.60001 -2.17902 -1.32701 -2.22705 -75.6477c0 -55.8829 -0.0779419 -67.6756 -0.555969 -67.6756c-0.0469971 0 -0.098999 0.1164 -0.153992 0.317701c-15.063 56.0368 -87.821 100.232 -182.321 110.7c-14.305 1.582 -28.536 2.34399 -42.556 2.34399
c-109.847 0 -206.744 -46.7987 -224.555 -113.044c-0.0550003 -0.201302 -0.107002 -0.317701 -0.153999 -0.317701c-0.478004 0 -0.556 11.7927 -0.556 67.6756c-0.0480042 59.4947 -0.142006 70.1997 -0.758003 72.1417c-1.705 5.59001 -6.8212 10.706 -12.4581 12.458
c-1.354 0.397003 -3.5826 0.597992 -5.8179 0.597992c-2.3002 0 -4.6075 -0.212997 -5.9768 -0.644989zM318.156 116.684c63.068 -9.693 114.82 -82.2398 114.82 -147.596c0 -13.5269 -2.21701 -26.7458 -7.009 -39.0356
c-12.503 -32.1059 -38.407 -47.6319 -67.655 -47.6319c-35.135 0 -75.096 22.4065 -102.445 65.395c-17.462 27.4833 -25.409 56.33 -25.409 82.2928c0 48.9392 28.238 87.6322 74.224 87.6322c4.336 0 8.83099 -0.343994 13.474 -1.057zM638.272 173.574
c-5.448 -1.705 -10.563 -6.916 -12.269 -12.458c-0.490967 -1.662 -0.73999 -79.5705 -0.73999 -158.371c0 -80.6553 0.260986 -162.246 0.788025 -163.971c2.58398 -8.534 10.433 -13.167 18.327 -13.167c5.995 0 12.016 2.67201 15.778 8.33501
c2.87701 4.336 3.08502 -5.748 3.08502 101.16l-0.00604248 64.8669l0.00604248 64.8668c0 106.907 -0.208008 96.8235 -3.08502 101.159c-2.41602 3.60001 -6.11102 6.395 -10.089 7.62601c-1.35504 0.397003 -3.58301 0.597992 -5.81799 0.597992
c-2.30103 0 -4.60803 -0.212997 -5.97705 -0.644989z" />
    <glyph glyph-name="clefs.C" unicode="&#xe116;" horiz-adv-x="642" 
d="M0 0v-507.789h60.6316h60.6314v507.789v507.789h-60.6314h-60.6316v-507.789zM166.737 0v-507.789h15.158h15.158l0.0940094 242.857l0.141998 242.858l5.116 -4.4052c7.295 -6.3 20.179 -20.3211 28.611 -31.1685c32.873 -42.2526 57.789 -96.5846 73.61 -160.721
c4.02701 -16.248 5.73199 -18.474 13.785 -18.474c7.815 0.0469971 10.847 3.97899 11.747 15.205c6.10602 78.667 58.538 138.034 118.851 138.034c4.259 0 8.55701 -0.295998 12.88 -0.9021c52.958 -7.4368 70.106 -41.1157 73.374 -144.284
c0.590027 -18.417 0.890991 -35.535 0.890991 -51.434c0 -100.319 -12.006 -152.114 -39.401 -175.461c-16.859 -14.372 -42.318 -21.643 -69.877 -21.643c-24.942 0 -51.604 5.95599 -75.165 17.995l-2.36899 1.185l1.89499 0.283997
c8.621 1.37399 13.358 2.79501 19.184 5.73102c21.326 10.766 30.892 30.036 30.892 49.405c0 29.632 -22.39 59.495 -59.313 59.495c-37.461 0 -61.945 -30.386 -61.945 -62.217c0 -15.743 5.99002 -31.84 19.361 -44.788c34.991 -33.905 80.992 -50.099 127.957 -50.099
c67.728 0 137.463 33.676 179.085 96.473c23.775 35.812 36.001 77.727 36.001 121.598c0 18.451 -2.16296 37.247 -6.53796 56.081c-20.795 89.479 -90.474 156.268 -171.9 164.842c-4.92401 0.5126 -9.75598 0.769897 -14.505 0.769897
c-26.407 0 -50.217 -7.9571 -72.7 -24.2173c-2.36502 -1.7078 -4.44601 -3.0108 -4.897 -3.0108c-0.0370178 0 -0.0630188 0.00869751 -0.0769958 0.0266037c-0.188995 0.189499 -12.221 20.0369 -26.716 44.1l-26.431 43.6737l26.431 43.7211
c14.495 24.0157 26.527 43.8631 26.716 44.0526c0.0139771 0.0179062 0.039978 0.0266037 0.0769958 0.0266037c0.450989 0 2.53198 -1.303 4.897 -3.0108c22.263 -16.1053 46.042 -24.1579 71.337 -24.1579c76.784 0 149.731 55.8004 179.194 137.036
c10.066 27.778 15.067 56.545 15.067 84.723c0 34.674 -7.57202 68.456 -22.598 98.404c-38.478 76.749 -116.775 119.68 -192.874 119.68c-46.533 0 -92.244 -16.052 -127.526 -50.238c-13.377 -12.954 -19.371 -29.054 -19.371 -44.798
c0 -31.813 24.47 -62.176 61.955 -62.207l0.105988 -0.00100708c36.839 0 59.194 29.86 59.194 59.488c0 19.374 -9.56 38.65 -30.879 49.413c-5.82599 2.936 -10.563 4.35703 -19.184 5.73102l-1.89499 0.283997l2.36899 1.185c23.561 12.039 50.223 17.995 75.165 17.995
c27.559 0 53.018 -7.271 69.877 -21.643c27.395 -23.347 39.401 -75.142 39.401 -175.461c0 -15.899 -0.300964 -33.017 -0.890991 -51.434c-3.26801 -103.168 -20.416 -136.847 -73.374 -144.284c-4.323 -0.606102 -8.621 -0.9021 -12.88 -0.9021
c-60.313 0 -112.745 59.3668 -118.851 138.034c-0.899994 11.226 -3.93198 15.158 -11.747 15.205c-8.05301 0 -9.758 -2.226 -13.785 -18.474c-15.821 -64.136 -40.737 -118.468 -73.61 -160.721c-8.43201 -10.8474 -21.316 -24.8685 -28.611 -31.1685l-5.116 -4.4052
l-0.141998 242.858l-0.0940094 242.857h-15.158h-15.158v-507.789z" />
    <glyph glyph-name="clefs.F" unicode="&#xe117;" horiz-adv-x="661" 
d="M226.421 252.9c-121.737 -7.295 -217.61 -91.705 -220.595 -194.163c-0.0434003 -1.4883 -0.06493 -2.9699 -0.06493 -4.4445c0 -70.1738 48.7541 -124.462 110.127 -124.462c3.506 0 7.052 0.177101 10.633 0.538399c54.881 5.558 89.617 51.895 89.617 99.9901
c0 23.6366 -8.38901 47.6979 -26.901 67.552c-18.708 20.0865 -45.269 30.6165 -71.854 30.6165c-18.1772 0 -36.3655 -4.923 -52.0619 -15.08c-1.668 -1.053 -3.0513 -1.862 -3.2452 -1.862c-0.0153999 0 -0.0233002 0.00499725 -0.0233002 0.0149994
c0 0.663002 5.0211 12.174 7.3895 16.863c31.9479 63.699 102.417 101.8 170.468 101.8c30.224 0 59.97 -7.515 85.653 -23.642c60.675 -38.13 93.407 -113.596 93.407 -213.663c0 -10.943 -0.390991 -22.1803 -1.181 -33.6951
c-14.163 -207.047 -168.868 -391.642 -400.926 -478.231c-15.0632 -5.63696 -16.8632 -7.15295 -16.8632 -14.4c0 -7.51599 3.43105 -11.007 11.4925 -11.007c2.8623 0 6.3083 0.440002 10.3917 1.29602c203.069 42.158 371.984 160.39 463.121 324.237
c39.331 70.699 62.649 154.065 62.649 219.749c0 11.6825 -0.737976 22.8056 -2.25397 33.1986c-15.584 107.053 -98.763 187.342 -218.795 211.216c-26.142 5.198 -56.107 8.08301 -82.208 8.08301c-6.24901 0 -12.276 -0.165009 -17.976 -0.504013zM617.211 155.984
c-19.284 -2.556 -31.629 -20.052 -31.629 -38.012c0 -8.332 2.65802 -16.765 8.513 -23.8509c7.31201 -8.8596 18.394 -13.638 29.538 -13.638c6.25299 0 12.526 1.5049 18.162 4.638c13.145 7.3149 19.441 20.2099 19.441 33.0699c0 15.453 -9.091 30.857 -26.31 36.467
c-2.80103 0.921997 -8.84204 1.552 -13.57 1.552c-1.58704 0 -3.026 -0.0709991 -4.14502 -0.226013zM617.211 -80.8579c-19.284 -2.5561 -31.629 -20.0521 -31.629 -38.0121c0 -8.333 2.65802 -16.765 8.513 -23.851c7.31201 -8.86 18.394 -13.638 29.538 -13.638
c6.25299 0 12.526 1.50499 18.162 4.638c13.145 7.31499 19.441 20.21 19.441 33.07c0 15.453 -9.091 30.8565 -26.31 36.4668c-2.80103 0.922096 -8.84204 1.55209 -13.57 1.55209c-1.58704 0 -3.026 -0.0709991 -4.14502 -0.2258z" />
    <glyph glyph-name="clefs.G" unicode="&#xe118;" horiz-adv-x="623" 
d="M359.403 1080.91c-7.621 -2.80005 -37.638 -31.6801 -54.954 -52.88c-56.862 -69.564 -87.028 -156.64 -87.028 -247.587c0 -23.399 1.99699 -47.054 6.049 -70.732c1.037 -6.22101 16.486 -79.528 19.701 -93.577c0.414001 -1.86694 4.40599 -20.271 8.81299 -40.957
l7.98399 -37.586l-22.137 -22.293c-63.405 -63.715 -115.248 -124.735 -166.573 -195.967c-47.6846 -66.184 -71.2582 -141.493 -71.2582 -215.793c0 -86.4519 31.9152 -171.537 94.8988 -239.288c63.7742 -68.645 157.378 -107.88 248.941 -107.88
c24.405 0 48.665 2.78801 72.176 8.548c4.41602 1.08 8.13501 1.927 8.565 1.927c0.0249939 0 0.0379944 -0.00300598 0.0410156 -0.00900269c0.156006 -0.207001 20.323 -94.251 22.863 -106.849c5.362 -26.344 8.04303 -50.971 8.04303 -73.803
c0 -25.739 -3.40701 -49.198 -10.22 -70.269c-21.962 -67.944 -89.714 -113.801 -162.345 -113.801c-9.66702 0 -19.421 0.812012 -29.164 2.49298c-15.916 2.74799 -35.513 8.91699 -46.556 14.724l-2.43599 1.24402l4.50999 0.052002
c51.947 0.258972 94.251 43.704 94.251 96.843v0.0639954c0 60.903 -49.755 100.629 -102.135 100.629c-25.878 0 -52.397 -9.69598 -73.873 -31.327c-21.275 -21.412 -32.0448 -48.407 -32.0448 -75.406c0 -23.857 8.40881 -47.717 25.4088 -67.733
c42.01 -49.483 102.251 -75.143 162.599 -75.143c45.999 0 92.061 14.909 130.16 45.54c50.448 40.604 75.529 97.486 75.529 171.686c0 13.339 -0.809998 27.237 -2.42999 41.702c-2.073 18.871 -4.66501 32.505 -17.574 92.747
c-6.68802 31.417 -12.184 57.287 -12.184 57.495c0 0.259003 2.64401 1.55501 5.85901 2.903c96.07 41.129 160.99 135.723 160.99 233.392c0 2.42 -0.039978 4.8418 -0.120972 7.2647c-4.09503 124.321 -91.399 221.008 -213.387 236.199
c-3.77698 0.468994 -12.737 0.694 -22.131 0.694c-11.362 0 -23.358 -0.32901 -27.586 -0.95401c-2.88602 -0.411987 -5.36801 -0.742981 -5.94202 -0.742981c-0.0749817 0 -0.117981 0.00500488 -0.123993 0.0180054c-0.052002 0.0509949 -8.39899 39.193 -18.612 86.941
l-18.56 86.837l9.28 8.96899c5.133 4.97702 16.279 15.657 24.833 23.796c93.318 88.601 139.77 181.659 147.028 294.626c0.414001 6.45001 0.618011 13.029 0.618011 19.713c0 95.296 -41.3 211.963 -100.209 279.061c-15.417 17.5801 -25.878 25.3601 -34.587 25.3601
c-1.71597 0 -3.36499 -0.300049 -4.96997 -0.890015zM405.025 938.029c15.294 -2.02197 28.203 -10.576 34.062 -22.448c5.57098 -11.3 8.97501 -33.439 8.97501 -54.775c0 -6.85602 -0.351013 -13.6281 -1.095 -19.932
c-8.96902 -76.313 -53.658 -162.114 -127.068 -243.871c-6.95499 -7.77899 -30.547 -32.042 -31.149 -32.042l-0.00900269 0.00299072c-0.415009 0.415039 -21.567 100.784 -22.707 107.679c-2.871 17.671 -4.28699 35.201 -4.28699 52.382
c0 54.194 14.092 104.918 41.095 145.659c26.619 40.244 66.071 67.745 96.091 67.745c2.07898 0 4.112 -0.132019 6.09198 -0.400024zM298.85 355.725c5.237 -24.574 9.79898 -46.089 10.214 -47.8c1.651 -7.172 12.546 -58.512 12.546 -59.045v-0.0039978
c-0.103973 -0.052002 -1.452 -0.519012 -3.00699 -1.037c-85.973 -28.644 -140.686 -106.965 -140.686 -190.863c0 -19.0575 2.823 -38.4027 8.74399 -57.5188c16.02 -51.7915 54.799 -94.9251 104.257 -116.025c3.89499 -1.667 7.51199 -2.476 10.718 -2.476
c7.16602 0 12.28 4.043 13.856 11.6c0.260986 1.269 0.395996 2.461 0.395996 3.596c0 5.6344 -3.34201 9.8285 -11.283 14.7051c-37.122 22.7868 -55.619 61.0151 -55.619 100.107c0 39.7976 19.171 80.4903 57.382 106.696c10.145 6.94099 34.561 18.519 38.779 18.519
c0.286987 0 0.480988 -0.0540009 0.570007 -0.166c0.102997 -0.104004 6.065 -27.84 13.272 -61.642c7.20599 -33.8019 13.531 -63.5081 14.101 -66.1003c0.570007 -2.54033 1.34799 -6.16936 1.763 -8.03572c0.414001 -1.86636 4.35501 -20.2707 8.76102 -40.9562
c4.45898 -20.6855 14.102 -66.0488 21.567 -100.784c7.414 -34.786 13.479 -63.508 13.479 -63.819c0 -1.45099 -22.552 -7.465 -36.29 -9.746c-12.705 -2.103 -25.384 -3.127 -37.946 -3.127c-98.609 0 -189.955 63.113 -229.825 162.856
c-13.514 33.8666 -20.178 70.0703 -20.178 106.672c0 56.0726 15.64 113.081 46.255 164.054c15.502 25.766 55.836 79.165 93.37 123.646c18.197 21.567 53.917 61.434 55.006 61.434c0.156006 0 4.56201 -20.115 9.798 -44.74zM403.781 140.938
c86.237 -9.468 149.006 -85.2966 149.006 -169.824c0 -13.5982 -1.62396 -27.4215 -5.03699 -41.23c-10.524 -42.6156 -38.053 -81.9126 -76.261 -108.768c-6.37802 -4.519 -20.001 -12.832 -20.993 -12.832c-0.0320129 0 -0.0509949 0.00900269 -0.0559998 0.0270081
c-0.154999 0.466995 -6.89499 31.832 -8.96899 41.578c-0.777008 3.83699 -15.138 70.9739 -31.831 149.102c-16.694 78.1797 -30.381 142.258 -30.381 142.413c0 0.378998 2.392 0.552994 5.90298 0.552994c5.138 0 12.675 -0.371994 18.619 -1.019z" />
    <glyph glyph-name="clefs.tab" unicode="&#xe119;" horiz-adv-x="500" 
d="M439.95 752.258c-5.77902 -0.852966 -10.61 -3.12598 -15.537 -7.29498c-22.596 -19.28 -60.295 -29.527 -102.419 -29.527c-22.868 0 -47.04 3.02002 -70.807 9.25305c-4.026 1.08997 -10.09 2.65295 -13.5 3.55298c-17.278 4.513 -35.853 6.68799 -54.668 6.68799
c-44.371 0 -90.0695 -12.093 -123.201 -34.114c-22.534 -14.965 -32.4434 -28.012 -32.4434 -43.067c0 -1.33801 0.0783005 -2.69202 0.232901 -4.065c2.356 -20.648 18.2627 -31.902 34.7821 -31.902c13.0405 0 26.4628 7.01404 33.9021 21.955
c14.3218 28.748 46.4088 44.961 84.1358 44.961c13.556 0 27.841 -2.09302 42.291 -6.45099c6.77301 -2.03601 5.968 -0.710022 6.86801 -11.273c1.924 -22.673 2.87799 -44.894 2.87799 -66.541c0 -88.114 -15.799 -166.709 -46.22 -227.475
c-13.784 -27.521 -29.653 -43.011 -47.795 -46.658c-1.886 -0.376984 -3.47499 -0.571991 -4.836 -0.571991c-2.74001 0 -4.55499 0.789001 -6.011 2.46701c-6.292 7.20499 -14.566 11.099 -22.945 11.099c-2.91299 0 -5.8382 -0.471008 -8.6974 -1.436
c-13.4387 -4.53601 -19.734 -15.795 -19.734 -27.042c0 -13.768 9.4335 -27.518 26.7444 -28.9c2.179 -0.189972 7.626 -0.662994 12.032 -1.09c6.039 -0.575989 11.975 -0.862 17.798 -0.862c51.135 0 93.616 22.064 121.512 63.483
c39.35 58.39 62.223 155.943 62.223 258.445c0 19.901 -0.862 39.989 -2.633 60.013l-0.284027 3.41095h10.089c47.132 0 98.811 11.037 132.111 28.231c11.505 5.93701 16.594 16.252 16.594 26.361c0 14.562 -10.562 28.697 -27.719 28.697
c-1.53 0 -3.112 -0.112976 -4.74399 -0.346985zM306.371 261.047c-12.079 -1.79999 -23.637 -10.042 -29.795 -21.221c-3.884 -7.10501 -4.879 -12.315 -5.73099 -29.984c-7.05801 -149.068 -75.742 -290.984 -171.805 -354.931
c-25.3115 -16.846 -51.2597 -27.165 -67.6687 -27.165c-1.4938 0 -2.9086 0.0849915 -4.2366 0.259003c-1.2627 0.164001 -2.4878 0.242996 -3.6739 0.242996c-14.7509 0 -23.4604 -12.168 -23.4604 -24.185c0 -9.38 5.30607 -18.667 17.187 -22.005
c1.2463 -0.347 5.2159 -0.509995 10.0651 -0.509995c6.3929 0 14.3144 0.281998 19.5401 0.793991c62.4788 6.3 130.69 45.758 185.069 107.147l1.75201 1.99l4.92699 -2.368c13.263 -6.316 28.595 -9.576 42.841 -9.576c10.328 0 20.086 1.714 28.069 5.21799
c5.021 2.212 7.76599 6.719 7.76599 11.229c0 3.021 -1.23102 6.0441 -3.83401 8.3812c-2.51099 2.27361 -3.88498 2.6526 -11.748 3.221c-13.831 1.0421 -25.389 5.06841 -37.231 13.0263c-2.69501 1.8121 -4.03302 2.5321 -4.03302 3.7668
c0 1.2183 1.30301 2.93771 3.89099 6.70161c13.215 19.2316 28.563 46.0422 38.084 66.5527c1.89499 4.02631 3.552 7.48421 3.742 7.72105c0.00698853 0.00685978 0.0140076 0.0102401 0.0229797 0.0102401c0.221008 0 0.950012 -2.39879 1.63501 -5.45761
c11.274 -49.9264 30.505 -113.352 43.342 -143.194c18.758 -43.532 57.505 -73.848 100.374 -78.585c6.966 -0.776001 13.176 -1.16 18.499 -1.16c8.647 0 14.952 1.01399 18.353 3.008c8.43201 4.93401 12.049 12.642 12.049 20.312c0 12.563 -9.707 25.023 -23.866 25.023
c-2.255 0 -4.62302 -0.31601 -7.08301 -0.998001l-3.173 -0.853012l-2.46399 1.13701c-11.936 5.494 -24.915 22.547 -33.015 43.247c-21.979 56.4159 -44.527 146.084 -59.921 238.5c-6.53699 39.032 -14.448 97.058 -16.153 117.947
c-1.72501 21.093 -20.615 37.236 -41.968 37.236c-2.09698 0 -4.21799 -0.156006 -6.34799 -0.477997zM265.161 -257.684c-92.085 -7.29501 -164.369 -35.195 -217.753 -84.032c-13.8789 -12.695 -18.0947 -20.463 -18.0947 -33.442
c0 -22.581 17.8469 -35.914 35.9877 -35.914c12.416 0 24.9697 6.246 32.0333 20.046c14.7317 28.847 46.7527 53.337 91.9417 70.437c3.142 1.18597 4.82201 1.86899 5.75 1.86899c1.18401 0 1.14301 -1.11401 1.356 -3.71701
c0.188995 -2.03699 0.520996 -6.29999 0.804993 -9.521c0.848999 -10.463 1.26801 -21.123 1.26801 -31.936c0 -75.485 -20.453 -158.391 -58.158 -233.469c-17.952 -35.811 -50.21 -62.905 -74.9364 -62.953h-4.2157l-2.6527 2.41595
c-5.333 4.78204 -11.637 6.927 -17.8188 6.927c-14.0238 0 -27.418 -11.0359 -27.418 -27.343c0 -15.631 11.4158 -26.858 27.8052 -27.237c2.8895 -0.0939941 11.3211 -0.283997 18.7579 -0.473022c1.6299 -0.0429688 3.2534 -0.0640259 4.8703 -0.0640259
c38.1862 0 72.7322 11.796 102.135 34.927c2.463 1.94202 4.92599 3.88403 5.54199 4.35803l1.089 0.85199l-0.520996 -1.79999c-0.37001 -1.25598 -0.544006 -3.56104 -0.544006 -6.02899c0 -3.20801 0.292999 -6.69202 0.828995 -8.513
c3.41 -11.558 10.089 -17.1 34.863 -28.894c33.313 -15.841 69.805 -23.304 105.116 -23.304c69.22 0 133.899 28.68 161.189 79.151c7.63901 14.147 11.408 27.82 11.408 41.98c0 9.54602 -1.71301 19.312 -5.108 29.594c-11.984 36.379 -45.142 70.579 -91.042 93.979
l-6.39499 3.22101l7.24701 3.552c54.436 26.606 87.498 67.062 87.498 104.531c0 6.02499 -0.85498 11.973 -2.61301 17.774c-15.916 52.579 -80.669 93.222 -163.09 102.364c-5.31299 0.596985 -20.662 0.985992 -32.822 0.985992
c-6.16199 0 -11.506 -0.100006 -14.309 -0.322998zM308.976 -304.768c51.604 -8.80399 85.632 -39.978 85.632 -74.204c0 -7.02402 -1.43301 -14.177 -4.44202 -21.291c-13.216 -31.311 -54.379 -57.032 -98.574 -61.532c-13.642 -1.42099 -22.405 -10.516 -22.405 -23.258
c0 -12.789 7.62598 -20.652 22.926 -23.684c26.337 -5.258 45.9 -13.358 64.942 -26.905c30.242 -21.549 45.158 -50.521 45.158 -77.562c0 -29.249 -17.452 -56.241 -51.837 -69.138c-11.597 -4.349 -23.954 -6.479 -36.664 -6.479c-30.48 0 -62.991 12.249 -91.941 35.516
c-6.815 5.5 -12.96 7.98199 -20.014 7.98199c-1.32901 0 -2.69101 -0.0880127 -4.09601 -0.260986c-1.593 -0.194031 -2.99399 -0.356995 -3.47299 -0.356995c-0.105011 0 -0.166 0.00799561 -0.175003 0.0249634l-0.00100708 0.00402832
c0 0.104004 1.31001 1.83197 2.985 3.83301c13.595 16.532 21.648 30.126 34.911 59.068c33.199 72.135 50.122 145.814 50.122 216.948c0 16.963 -0.962006 33.781 -2.896 50.4c-0.520996 4.405 -1.23099 9.047 -1.65799 10.326l-0.710022 2.32101l12.458 -0.283997
c10.468 -0.189026 13.547 -0.426025 19.752 -1.46802z" />
    <glyph glyph-name="clefs.percussion" unicode="&#xe11a;" horiz-adv-x="341" 
d="M0 0v-250.105h56.8421h56.8419v250.105v250.105h-56.8419h-56.8421v-250.105zM227.368 0v-250.105h56.843h56.842v250.105v250.105h-56.842h-56.843v-250.105z" />
    <glyph glyph-name="clefs.C_change" unicode="&#xe11b;" horiz-adv-x="514" 
d="M0 0v-406.421h48.7895h48.7894v406.421v406.421h-48.7894h-48.7895v-406.421zM133.579 0v-406.421h12.316h12.316l0.0939941 194.21l0.142014 194.258l4.5 -3.979c34.437 -30.5052 65.7 -89.6684 81.285 -153.757c2.79401 -11.369 4.68901 -13.785 10.705 -13.785
c6.158 0 8.71602 3.506 9.37901 12.837c4.53699 62.624 48.371 110.008 95.642 110.008c7.50699 0 15.1 -1.195 22.637 -3.7136c36.852 -12.3158 46.089 -42.5369 46.089 -150.869v-0.837997c0 -84.698 -7.17798 -118.98 -29.273 -140.414
c-13.179 -12.782 -34.532 -19.354 -57.809 -19.354c-18.389 0 -37.979 4.10199 -55.686 12.485l-6.11099 2.89001l3.83701 0.615997c23.915 3.715 37.514 24.255 37.514 45.135c0 14.523 -6.578 29.21 -20.84 38.517c-8.27802 5.39001 -17.398 7.901 -26.37 7.901
c-20.598 0 -40.416 -13.238 -47.478 -35.28c-1.692 -5.24698 -2.528 -10.44 -2.528 -15.512c0 -13.104 5.582 -25.406 16.407 -35.788c26.717 -25.52 63.101 -39.281 101.759 -39.281c10.349 0 20.861 0.987 31.394 2.99701c82.321 15.802 140.59 86.37 140.59 170.173
l-0.0010376 0.306c-0.141968 89.053 -57.173 163.469 -135.378 176.684c-6.75101 1.1328 -13.205 1.7071 -19.437 1.7071c-19.308 0 -36.487 -5.5122 -53.748 -17.0071c-3.789 -2.51051 -7.10501 -4.64211 -7.34201 -4.7368l-0.000976562 -9.91821e-05
c-0.312012 0 -10.058 15.708 -21.694 34.958l-21.221 35.1l0.899994 1.51579c3.55301 6.06316 41.021 67.9263 41.4 68.4c0.0480042 0.0541 0.123016 0.0820999 0.230011 0.0820999c0.639008 0 2.40298 -1.0092 5.97598 -3.4453
c18.175 -12.3643 35.048 -18.1513 54.745 -18.1513c7.92099 0 16.299 0.936001 25.402 2.7566c78.563 15.6987 130.41 94.3517 130.41 174.727c0 29.971 -7.20898 60.182 -22.931 87.457c-32.406 56.274 -91.954 87.053 -149.729 87.053
c-37.738 0 -74.72 -13.132 -102.887 -40.868c-10.132 -9.98801 -14.723 -22.441 -14.723 -34.717c0 -23.935 17.456 -47.193 45.323 -50.168c1.72 -0.186005 3.41901 -0.277008 5.09399 -0.277008c26.438 0 46.899 22.615 46.899 47.252
c0 6.65601 -1.49402 13.459 -4.76602 20.004c-6.58499 13.121 -22.453 24.49 -34.248 24.49c-1.01102 0 -1.53302 0.117004 -1.53302 0.382019c0 0.431 1.37802 1.25299 4.28101 2.60199c18.214 8.58099 38.31 12.81 57.065 12.81c21.726 0 41.653 -5.67599 54.771 -16.836
c23.756 -20.261 31.737 -56.015 31.737 -142.895v-0.773987c0 -109.8 -9.758 -140.4 -48.221 -151.626c-6.82901 -1.9865 -13.671 -2.9346 -20.427 -2.9346c-47.694 0 -91.109 47.2525 -95.673 109.987c-0.662994 8.57301 -1.89502 10.8 -6.82101 12.315
c-1.30798 0.409012 -2.49399 0.621002 -3.575 0.621002c-4.556 0 -7.24199 -3.763 -9.30899 -12.415c-14.779 -61.863 -42.205 -115.627 -76.547 -150.016c-4.83199 -4.9263 -9.09499 -8.9052 -9.379 -8.9052c-0.378998 0 -0.520996 51.4421 -0.520996 193.973v193.974
h-12.316h-12.316v-406.421z" />
    <glyph glyph-name="clefs.F_change" unicode="&#xe11c;" horiz-adv-x="529" 
d="M185.766 202.642c-73.895 -3.742 -135.427 -39.41 -165.458 -95.874c-10.9365 -20.6041 -15.9496 -42.0927 -15.9496 -62.444c0 -54.1326 35.4682 -100.219 89.2759 -100.219c47.6619 0.0321007 79.3619 39.4481 79.3619 80.349c0 19.4631 -7.179 39.2623 -23.23 55.3141
c-15.249 15.2483 -35.881 23.2026 -56.3448 23.2026c-14.2457 0 -28.4096 -3.8548 -40.6187 -11.7868c-1.3065 -0.8424 -2.1389 -1.39149 -2.5129 -1.39149c-0.153702 0 -0.23 0.0926971 -0.23 0.295898c0 0.664902 0.816601 2.5123 2.4113 6.164
c23.9958 54.5514 82.7501 88.0584 139.46 88.0584c23.556 0 46.759 -5.782 66.972 -18.237c43.247 -26.621 67.784 -72.8056 74.747 -140.779c0.425995 -4.0736 0.639008 -17.8342 0.639008 -31.719c0 -13.8849 -0.213013 -27.8941 -0.639008 -32.4652
c-14.542 -158.163 -128.369 -297.711 -300.884 -368.669c-8.6685 -3.55298 -25.6737 -10.042 -26.3369 -10.042c-3.55429 0 -6.42883 -5.203 -6.42883 -9.72299c0 -1.564 0.344207 -3.04599 1.12356 -4.203c1.83357 -2.68201 3.12374 -4.05499 7.06322 -4.05499
c4.20232 0 11.4193 1.56198 25.5262 4.76498c209.653 47.653 373.832 207.9 401.163 391.69c1.944 13.0483 2.91299 25.6944 2.91299 37.9244c0 64.3558 -26.837 117.189 -79.697 156.476c-39.392 29.224 -101.807 47.694 -159.28 47.694
c-4.382 0 -8.735 -0.108002 -13.046 -0.326004zM494.134 124.911c-15.57 -2.04601 -25.911 -15.897 -25.911 -30.4575c0 -5.3286 1.38501 -10.7523 4.40601 -15.7272c5.85001 -9.6144 15.858 -14.3332 25.855 -14.3332c10.888 0 21.763 5.5959 27.245 16.5595
c2.27002 4.5303 3.30499 9.1947 3.30499 13.7182c0 16.1642 -13.225 30.5272 -30.611 30.5272c-1.40399 0 -2.83499 -0.0929947 -4.289 -0.286995zM494.134 -64.5632c-15.57 -2.0459 -25.911 -15.8967 -25.911 -30.4569c0 -5.3289 1.38501 -10.7519 4.40601 -15.7269
c5.85001 -9.615 15.858 -14.334 25.855 -14.334c10.888 0 21.763 5.596 27.245 16.56c2.27002 4.53001 3.30499 9.1946 3.30499 13.7181c0 16.1643 -13.225 30.5275 -30.611 30.5275c-1.40399 0 -2.83499 -0.0937042 -4.289 -0.287804z" />
    <glyph glyph-name="clefs.G_change" unicode="&#xe11d;" horiz-adv-x="498" 
d="M287.182 864.727c-4.25101 -1.55499 -24.833 -20.582 -36.394 -33.646c-39.816 -44.948 -65.893 -102.443 -73.877 -162.84c-2.10199 -15.868 -3.153 -30.624 -3.153 -45.19c0 -15.606 1.20601 -30.995 3.62001 -47.298c1.76199 -11.873 8.86499 -45.882 28.876 -138.422
l1.608 -7.517l-10.11 -9.85098c-63.249 -61.486 -138.214 -153.56 -163.462 -200.633c-23.2364 -43.403 -34.2902 -90.001 -34.2902 -135.77c0 -98.0119 50.6895 -192.228 140.984 -243.153c41.1 -23.159 87.916 -35.231 133.655 -35.231c20.609 0 41 2.451 60.55 7.44301
c2.159 0.515991 3.978 0.947998 4.34201 0.947998c0.0379944 0 0.0599976 -0.00500488 0.0639954 -0.0149994c0.104004 -0.154999 8.08801 -37.483 15.398 -72.062c6.29099 -29.685 9.38699 -53.072 9.38699 -73.803c0 -17.538 -2.216 -33.175 -6.58801 -49.118
c-16.163 -59.031 -72.095 -96.671 -131.653 -96.671c-18.954 0 -38.274 3.81198 -56.797 11.959l-4.92499 2.17801l6.99899 0.622009c43.826 3.91998 71.654 39.642 71.654 77.72c0 17.821 -6.095 36.158 -19.5 51.992c-15.557 18.397 -38.742 28.083 -62.211 28.083
c-15.948 0 -32.027 -4.47198 -45.934 -13.723c-25.5352 -17.013 -39.0531 -44.104 -39.0531 -71.499c0 -18.935 6.4585 -38.016 19.871 -54.013c33.1701 -39.496 81.7771 -60.404 130.593 -60.404c31.6 0 63.288 8.76102 90.933 26.913
c48.82 32.099 73.568 81.852 73.568 147.382c0 17.976 -1.862 37.139 -5.60101 57.451c-1.19199 6.42902 -9.228 44.378 -17.056 80.616l-3.215 15.035l2.12601 0.985001c42.097 19.7 68.174 39.971 91.607 71.336c26.822 35.8752 39.776 77.5039 39.776 118.654
c0 60.1817 -27.707 119.341 -80.266 157.982c-30.931 22.74 -71.603 35.779 -109.867 35.779c-6.052 0 -12.043 -0.326004 -17.926 -0.992004c-3.65302 -0.431992 -6.771 -0.730988 -7.207 -0.730988c-0.0339966 0 -0.0509949 0.0019989 -0.0509949 0.00498962
c-0.104004 0.156006 -3.05902 14.05 -14.257 66.463c-4.87399 22.812 -10.369 48.37 -12.184 56.769l-3.369 15.294l15.19 14.775c8.29501 8.13901 20.374 20.012 26.803 26.44c67.52 67.363 103.269 151.063 103.269 237.587c0 26.9449 -3.46701 54.165 -10.522 81.25
c-15.501 59.723 -43.6 114.988 -74.81 147.183c-9.89301 10.183 -16.349 14.549 -22.218 14.549c-1.48099 0 -2.92499 -0.278015 -4.37698 -0.811035zM323.317 750.413c15.138 -1.867 25.455 -10.006 29.81 -23.382c3.55899 -10.993 5.28299 -23.154 5.28299 -36.2
c0 -62.191 -39.174 -144.478 -105.341 -216.173c-8.304 -8.97 -21.573 -22.298 -22.173 -22.298l-0.0159912 0.00500488c-0.46701 0.519012 -17.108 79.58 -18.249 86.631c-2.23 13.6021 -3.32399 27.212 -3.32399 40.623c0 47.053 13.46 91.645 38.474 124.809
c19.908 26.44 46.089 44.17 68.278 46.244c0.985016 0.052002 2.073 0.207031 2.33301 0.207031l0.154999 0.00799561c0.617004 0 2.63101 -0.195007 4.76999 -0.473999zM231.813 318.247c0.155991 -1.08902 5.91 -28.099 12.754 -59.983
c6.791 -31.935 12.39 -58.324 12.39 -58.687c0 -0.310989 -2.799 -1.55499 -6.22101 -2.74699c-68.167 -23.374 -108.33 -87.46 -108.33 -152.225c0 -33.2058 10.558 -66.5902 33.313 -94.7573c17.934 -22.2211 51.555 -45.1913 65.306 -45.1913
c0.718002 0 1.382 0.0625992 1.98601 0.191299c6.287 1.36311 9.55901 5.8013 9.55901 10.7033c0 4.2334 -2.44 8.8126 -7.485 12.0559c-31.192 20.0913 -46.119 50.9683 -46.119 81.9523c0 39.0527 23.714 78.2753 68.464 96.2853c4.92902 1.989 7.181 2.872 8.28101 2.872
c0.877991 0 1.022 -0.563004 1.20599 -1.576c0.363007 -2.022 9.69501 -45.726 48.266 -226.037c5.19299 -24.234 9.336 -44.368 9.336 -45.379l-0.0039978 -0.0360107c-0.363007 -1.037 -15.968 -5.547 -25.248 -7.258c-11.214 -2.078 -22.429 -3.08701 -33.542 -3.08701
c-77.611 0 -150.239 49.224 -182.8 127.407c-11.6941 28.0855 -17.4397 58.1714 -17.4397 88.537c0 49.0605 14.9981 98.8506 44.1387 142.114c24.937 37.068 65.427 87.253 103.842 128.831c5.215 5.64401 6.963 7.59 7.67799 7.59
c0.408997 0 0.481003 -0.634003 0.669006 -1.57599zM326.946 112.221c70.032 -11.042 115.175 -71.2146 115.175 -135.446c0 -24.7326 -6.69299 -50.0669 -21.235 -73.4299c-13.635 -21.9297 -34.839 -42.3557 -56.924 -54.7987l-3.681 -2.073l-8.39902 39.452
c-4.66599 21.7227 -11.924 55.6801 -16.175 75.4842c-4.19901 19.8042 -12.701 59.6198 -18.871 88.3929c-6.117 28.8249 -11.716 54.8499 -12.39 57.9089l-1.19302 5.547l2.64401 0.155998c1.08701 0.060997 2.31699 0.0899963 3.63901 0.0899963
c5.427 0 12.407 -0.490997 17.41 -1.283z" />
    <glyph glyph-name="clefs.tab_change" unicode="&#xe11e;" horiz-adv-x="400" 
d="M349.48 601.295c-3.552 -0.852966 -5.87302 -2.03699 -9.23602 -4.784c-19.626 -15.988 -48.299 -24.219 -81.385 -24.219c-20.337 0 -42.342 3.10999 -64.936 9.44c-14.825 4.13599 -31.072 6.13898 -47.536 6.13898c-31.619 0 -64.0423 -7.38898 -88.7434 -21.25
c-24.8684 -13.974 -35.5737 -26.147 -35.5737 -40.595c0 -18.068 13.9255 -28.594 28.3115 -28.594c10.0902 0 20.407 5.17798 26.3043 16.563c12.435 23.921 36.9573 36.954 67.0173 36.954c10.476 0 21.623 -1.58197 33.167 -4.83795
c6.774 -1.89502 6.205 -0.853027 7.153 -12.979c1.22 -15.945 1.817 -31.768 1.817 -47.311c0 -80.966 -16.185 -154.346 -44.639 -197.821c-9.34001 -14.266 -23.738 -24.147 -33.043 -24.147c-2.77599 0 -5.099 0.878998 -6.699 2.784
c-4.7129 5.59601 -10.7917 8.00702 -16.8038 8.00702c-12.0411 0 -23.8146 -9.67203 -23.8146 -22.805c0 -2.12201 0.307602 -4.33501 0.971401 -6.61301c3.2684 -11.368 10.2316 -15.679 27.4737 -17.194c5.8431 -0.518997 11.4453 -0.781998 16.8353 -0.781998
c30.571 0 54.297 8.457 76.244 26.739c42.844 35.697 71.144 130.981 71.144 230.464c0 15.894 -0.722 31.896 -2.22301 47.779l-0.284988 2.88898l11.748 0.284058c49.831 1.37396 102.979 16.295 112.074 31.5c2.38101 3.97198 3.44901 8.12195 3.44901 12.12
c0 12.2 -9.95099 22.986 -22.94 22.986c-1.89301 0 -3.85101 -0.229004 -5.85199 -0.716003zM246.075 209.037c-7.437 -0.805008 -15.679 -5.40001 -20.937 -11.605c-5.731 -6.72701 -7.48399 -12.269 -8.194 -25.864c-5.069 -95.0206 -35.669 -179.905 -87.016 -241.436
c-32.6112 -39.1336 -77.5088 -67.7866 -105.712 -67.7866c-0.677799 0 -1.3459 0.0159912 -2.004 0.0500031c-2.0105 0.102997 -3.46 0.162003 -4.5949 0.162003c-1.9936 0 -3.0166 -0.183014 -4.4051 -0.636002c-8.76546 -2.88901 -13.212 -10.571 -13.212 -18.214
c0 -7.26801 4.02007 -14.502 12.1699 -17.549c2.0425 -0.76001 5.8305 -1.11301 10.5621 -1.11301c10.3019 0 25.077 1.67 36.0484 4.429c45.2846 11.415 87.7266 38.747 126.285 81.4734l1.942 2.0842l4.168 -1.9421c10.785 -4.9801 22.235 -7.5261 33.217 -7.5261
c4.79001 0 9.492 0.484497 14.009 1.4629c11.843 2.6053 15.206 5.1632 15.206 11.6053s-3.127 8.8579 -12.127 9.4737c-11.273 0.757896 -24.394 5.6842 -32.305 12.0789l-1.37401 1.0895l5.211 7.7684c9.90001 14.6842 17.763 28.4211 27 47.0368
c2.79601 5.68196 5.12001 10.076 5.33601 10.076c0.0109863 0 0.0169983 -0.0111704 0.0169983 -0.0339103c0 -2.13158 8.573 -36.0473 13.31 -52.6737c22.263 -78.0154 37.09 -102.458 73.137 -120.458c12.093 -6.03 30.118 -9.653 43.694 -9.653
c6.57898 0 12.113 0.850006 15.422 2.69c6.62399 3.717 9.452 9.77 9.452 15.881c0 10.166 -7.82501 20.494 -19.007 20.494c-1.80298 0 -3.69199 -0.268005 -5.64999 -0.848007c-0.516998 -0.155991 -1.065 -0.231995 -1.638 -0.231995
c-7.62698 0 -19.91 13.397 -27.399 30.358c-23.069 52.1052 -54.048 194.211 -62.479 286.532c-1.841 20.03 -15.402 33.084 -33.629 33.084c-1.472 0 -2.974 -0.0849915 -4.50301 -0.257996zM215.996 -205.911c-74.889 -5.21001 -133.105 -27.094 -176.921 -66.41
c-10.7238 -9.60199 -16.0519 -18.977 -16.0519 -28.235c0 -4.81 1.438 -9.58801 4.3045 -14.349c5.7932 -9.57501 14.8171 -14.246 24.0074 -14.246c10.4975 0 21.2121 6.095 27.5768 17.94c9.0947 17.006 28.232 33.869 51.821 45.711
c7.83 3.95999 24.014 10.501 25.77 10.501c0.0709991 0 0.117996 -0.0100098 0.140991 -0.0330048c1.04401 -1.04399 1.793 -22.754 1.793 -41.61c0 -9.36099 -0.184998 -18.019 -0.608994 -23.095c-3.79001 -45.047 -15.49 -90.426 -34.579 -133.816
c-8.384 -19.042 -9.758 -22.073 -12.032 -26.289c-14.8734 -27.947 -39.505 -48.316 -58.4997 -48.316c-3.4579 0 -3.4579 0 -6.3948 2.36902c-4.386 3.52899 -9.1666 5.06097 -13.7642 5.06097c-11.597 0 -22.0297 -9.75 -22.0297 -21.795
c0 -3.24097 0.755301 -6.64899 2.4466 -10.077c4.8315 -9.758 10.0894 -11.795 31.8789 -12.268c1.593 -0.0390015 3.1701 -0.059021 4.7319 -0.059021c34.6155 0 61.709 9.58899 87.589 30.801l1.46899 1.18396l-0.378998 -1.98999
c-0.397995 -2.06396 -0.606995 -3.99097 -0.606995 -5.81097c0 -9.87 6.14499 -16.552 21.543 -24.552c29.205 -15.155 61.442 -22.301 92.351 -22.301c56.423 0 108.421 23.809 129.476 66.164c4.99197 10.05 7.39398 20.571 7.39398 31.202
c0 35.672 -27.05 72.585 -74.089 97.072l-7.38901 3.884l7.673 3.88498c42.755 21.638 67.887 52.941 67.887 82.485c0 5.25 -0.794006 10.445 -2.42401 15.52c-14.921 46.452 -81.511 81.954 -150.314 81.954c-4.58501 0 -9.18001 -0.158005 -13.77 -0.481003z
M247.733 -243.947c41 -7.15999 67.944 -32.09 67.944 -59.367c0 -5.75 -1.19699 -11.604 -3.71201 -17.418c-10.706 -24.726 -43.864 -45.189 -78.964 -48.694c-10.933 -1.069 -17.761 -9.70102 -17.761 -18.739c0 -4.58798 1.75899 -9.28 5.63499 -13.14
c3.22099 -3.22101 5.92101 -4.358 14.353 -6.06302c45.047 -9.095 78.963 -37.516 85.5 -71.574c0.742004 -3.89603 1.10101 -7.724 1.10101 -11.459c0 -34.059 -29.84 -60.396 -70.709 -60.396c-0.964996 0 -1.93599 0.0150146 -2.91299 0.0440063
c-24.395 0.757996 -47.132 9.664 -69.632 27.332c-7.063 5.52203 -10.335 7.06 -16.459 7.06c-0.653 0 -1.33699 -0.0180054 -2.062 -0.0499878c-0.757996 -0.0230103 -1.414 -0.0339966 -1.968 -0.0339966c-1.563 0 -2.321 0.0939941 -2.321 0.296997
c0 0.0220337 0.00900269 0.0449829 0.026001 0.0690308c0.237 0.237 2.368 2.93695 4.737 5.92099c7.91 9.89999 13.263 18.805 21.647 36.237c27.569 57.268 42.253 116.289 43.626 175.263c0.0370026 1.61099 0.0540009 3.311 0.0540009 5.07498
c0 18.873 -1.99199 45.144 -3.985 50.299c-0.00799561 0.0189972 -0.0110016 0.0379944 -0.0110016 0.0559998c0 0.494995 2.68001 0.720001 6.453 0.720001c5.81 0 14.214 -0.534012 19.421 -1.43901z" />
    <glyph glyph-name="clefs.percussion_change" unicode="&#xe11f;" horiz-adv-x="272" 
d="M0 0v-200.368h45.4737h45.4737v200.368v200.368h-45.4737h-45.4737v-200.368zM181.895 0v-200.368h45.473h45.474v200.368v200.368h-45.474h-45.473v-200.368z" />
    <glyph glyph-name="scripts.coda" unicode="&#xe120;" horiz-adv-x="228" 
d="M-6.9796 280.673c-5.4474 -1.70599 -10.5632 -6.91602 -12.2684 -12.458c-0.521101 -1.79999 -0.6632 -7.05798 -0.6632 -27.663c0 -23.969 -0.0473003 -25.485 -0.805201 -25.485c-6.3948 -0.0469971 -29.5106 -8.573 -42.2053 -15.631
c-46.8943 -26.053 -79.9103 -71.29 -96.6793 -132.632c-3.07899 -11.2737 -7.62601 -40.0737 -7.62601 -48.3158c0 -0.284199 -8.05299 -0.4737 -22.832 -0.4737c-18.378 0 -23.305 -0.142099 -25.105 -0.663099c-8.56999 -2.6142 -13.23 -10.4722 -13.23 -18.3749
c0 -5.98738 2.675 -12.0003 8.351 -15.7778c4.642 -3.0789 4.642 -3.0789 29.984 -3.0789c15.253 0 22.832 -0.142101 22.832 -0.473701c0 -8.2895 4.54701 -36.9947 7.62601 -48.3158c16.769 -61.3425 49.785 -106.578 96.6793 -132.632
c12.6947 -7.058 35.8105 -15.584 42.2053 -15.632c0.7579 0 0.805201 -1.468 0.805201 -24.489l-0.000101089 -3.347c0 -25.103 0.087101 -24.459 4.358 -30.048c3.3395 -4.33401 8.96449 -6.50101 14.5895 -6.50101c5.625 0 11.25 2.16699 14.5895 6.50101
c4.2709 5.58899 4.358 4.94498 4.358 30.048l-9.91821e-05 3.347c0 23.021 0.0472984 24.489 0.8526 24.489c6.3474 0.0480042 29.4632 8.57401 42.1579 15.632c46.8949 26.053 79.9109 71.289 96.6789 132.632c3.07899 11.3211 7.62599 40.0263 7.62599 48.3158
c0 0.3316 7.91101 0.473701 23.827 0.473701c26.337 0 26.194 0 30.884 3.0789c5.589 3.7185 8.384 9.79347 8.384 15.8685c0 6.075 -2.795 12.15 -8.384 15.8684c-4.68999 3.0789 -4.547 3.0789 -30.884 3.0789c-15.916 0 -23.827 0.142099 -23.827 0.4737
c0 8.2895 -4.547 36.9948 -7.62599 48.3158c-16.768 61.3418 -49.784 106.579 -96.6789 132.632c-12.6947 7.058 -35.8105 15.584 -42.1579 15.631c-0.805302 0 -0.8526 1.51599 -0.8526 25.485c0 28.184 0 27.852 -3.079 32.542
c-2.4158 3.60001 -6.11051 6.39401 -10.0895 7.62601c-1.35406 0.397003 -3.58258 0.597992 -5.81792 0.597992c-2.30015 0 -4.60753 -0.212982 -5.97682 -0.644989zM-19.9112 98.3042v-80.2895h-35.5737h-35.621l0.331604 6.0632
c2.6052 47.6526 21.1737 100.374 46.5631 132.253c6.0632 7.578 21.7421 22.168 23.9684 22.263c0.189499 0 0.3316 -36.142 0.3316 -80.2898zM22.9572 175.42c34.2474 -25.532 62.5264 -90.5211 65.8895 -151.342l0.331596 -6.0632h-35.6211h-35.5736v80.2895
c0 44.1478 0.142099 80.2898 0.378899 80.2898c0.189501 0 2.2737 -1.46899 4.5947 -3.174zM-19.9112 -100.169c0 -44.148 -0.142101 -80.29 -0.3316 -80.29c-2.2263 0.0950012 -17.9052 14.684 -23.9684 22.263c-25.3894 31.879 -43.9579 84.6002 -46.5631 132.3
l-0.331604 6.0158h35.621h35.5737v-80.289zM88.8467 -25.8958c-2.6052 -47.7 -21.1737 -100.421 -46.5631 -132.3c-6.0632 -7.57899 -21.7421 -22.168 -23.9211 -22.263c-0.236799 0 -0.378899 36.142 -0.378899 80.29v80.289h35.5736h35.6211z" />
    <glyph glyph-name="scripts.varcoda" unicode="&#xe121;" horiz-adv-x="228" 
d="M-6.9796 280.673c-5.4474 -1.70599 -10.5632 -6.91602 -12.2684 -12.458c-0.521101 -1.79999 -0.6632 -7.38998 -0.6632 -30.221v-27.995l-6.7263 -0.331985c-32.4474 -1.51501 -59.021 -4.263 -87.7735 -9.09401c-35.148 -5.87399 -35.053 -5.77899 -37.374 -27.664
c-5.06799 -48.173 -8.763 -109.042 -8.81 -143.763c0 -4.9263 -0.141998 -9.4737 -0.285004 -10.0421l-0.283997 -1.0895h-25.91c-20.985 0 -26.29 -0.142099 -28.09 -0.663099c-8.56999 -2.6142 -13.23 -10.4722 -13.23 -18.3749c0 -5.98738 2.675 -12.0003 8.351 -15.7778
c4.552 -3.0343 4.32899 -3.0789 30.515 -3.0789h2.45399h25.91l0.283997 -1.0421c0.143005 -0.615801 0.285004 -5.1158 0.285004 -10.0895c0.0469971 -34.721 3.742 -95.5894 8.81 -143.763c2.321 -21.884 2.226 -21.789 37.374 -27.663
c28.7525 -4.83099 55.3261 -7.57899 87.7735 -9.095l6.7263 -0.330994v-27.048c0 -1.86 -0.000499725 -3.605 -0.000499725 -5.243c0 -25.94 0.1257 -25.137 4.3584 -30.662c3.3395 -4.33401 8.96449 -6.50101 14.5895 -6.50101c5.625 0 11.25 2.16699 14.5895 6.50101
c4.2326 5.52499 4.3584 4.72198 4.3584 30.662c0 1.638 -0.000499725 3.383 -0.000499725 5.243v27.048l6.7736 0.330994c32.4 1.51601 58.9737 4.26401 87.7268 9.095c35.147 5.87401 35.052 5.77901 37.373 27.663c5.069 48.174 8.763 109.042 8.811 143.763
c0 4.9737 0.141998 9.4737 0.283997 10.0895l0.283997 1.0421h26.858h2.543c27.131 0 26.775 0.0445995 31.373 3.0789c5.589 3.7185 8.384 9.79347 8.384 15.8685c0 6.075 -2.795 12.15 -8.384 15.8684c-4.59799 3.0344 -4.24199 3.079 -31.373 3.079l-2.543 -9.91821e-05
h-26.858l-0.283997 1.0895c-0.141998 0.568399 -0.283997 5.1158 -0.283997 10.0421c-0.0480042 34.7211 -3.742 95.5897 -8.811 143.763c-2.321 21.885 -2.226 21.79 -37.373 27.664c-28.7531 4.83101 -55.3268 7.57899 -87.7268 9.09401l-6.7736 0.331985v27.995v2.65199
c0 28.295 -0.0446014 27.85 -3.079 32.448c-2.4158 3.60001 -6.11051 6.39401 -10.0895 7.62601c-1.35406 0.397003 -3.58258 0.597992 -5.81792 0.597992c-2.30015 0 -4.60753 -0.212982 -5.97682 -0.644989zM-19.9112 98.3042v-80.2895h-32.4473h-32.4l0.1894 2.2737
c0.142097 1.2316 0.331596 9.2842 0.473701 17.8579c0.473701 30.2684 2.5579 68.8267 5.7316 104.448c1.4684 17.005 2.4158 26.052 2.7 26.384c1.9895 1.989 42.6789 9.237 53.5263 9.56801l2.2263 0.0479889v-80.2898zM25.6099 178.12
c14.5421 -1.468 46.4684 -7.532 48.0789 -9.142c0.331604 -0.332001 1.3263 -9.89999 2.7948 -26.384c3.17361 -36.616 5.2105 -74.2266 5.6842 -104.448c0.142097 -8.5737 0.331596 -16.6263 0.473701 -17.8579l0.1894 -2.2737h-32.4h-32.4473v80.2895v80.2898h1.3736
c0.7579 0 3.5527 -0.237 6.2527 -0.473999zM-19.9112 -100.169v-80.29h-1.3737c-9.4263 0 -52.2947 7.57899 -54.3315 9.616c-0.331596 0.331009 -1.2316 9.095 -2.7474 26.384c-3.1737 35.621 -5.2579 74.179 -5.7316 104.447
c-0.142105 8.6211 -0.331604 16.6263 -0.473701 17.9053l-0.1894 2.2263h32.4h32.4473v-80.289zM82.6415 -22.1063c-0.142105 -1.279 -0.331604 -9.2842 -0.473701 -17.9053c-0.473701 -30.221 -2.5106 -67.8314 -5.6842 -104.447
c-1.4685 -16.484 -2.4632 -26.053 -2.7948 -26.384c-2.0368 -2.037 -44.9526 -9.616 -54.3316 -9.616h-1.3736v80.29v80.289h32.4473h32.4z" />
    <glyph glyph-name="f" unicode="f" horiz-adv-x="274" 
d="M338.279 414.663c-80.053 -6.44199 -154.563 -73.137 -189.047 -169.295l-2.937 -8.289l-37.137 -0.237c-38.0843 -0.237 -38.3685 -0.283997 -41.4001 -2.179c-6.5724 -4.12799 -9.8645 -10.467 -9.8645 -16.803c0 -6.312 3.2684 -12.62 9.8171 -16.734
c3.4106 -2.13101 4.0263 -2.179 37.1845 -2.179c28.319 0 31.186 -0.0429993 31.186 -0.70401c0 -0.0319977 -0.00698853 -0.0659943 -0.0179901 -0.100998c-0.141998 -0.473999 -4.07401 -17.053 -8.763 -36.853c-34.4842 -146.084 -55.1842 -218.699 -71.6211 -251.336
c-15.2526 -30.2686 -38.6526 -52.5316 -62.4315 -59.4476c-2.1793 -0.634003 -3.52167 -0.960999 -4.05837 -0.960999c-0.1799 0 -0.2692 0.0369873 -0.2692 0.110992c0 0.234009 0.8863 0.841003 2.62231 1.845c14.5044 8.439 21.2611 22.954 21.2611 37.708
c0 20.2753 -12.7601 41.0023 -35.7085 47.0341c-5.1294 1.3561 -10.1073 1.9965 -14.8705 1.9965c-28.2552 0 -48.9595 -22.534 -48.9595 -51.8826c0 -7.007 1.1802 -14.402 3.7195 -21.972c9.6869 -29.06 35.9506 -46.37 68.1837 -46.37
c5.28008 0 10.7204 0.463989 16.2742 1.418c50.1158 8.668 93.979 40.547 130.5 95.0206c52.484 78.2527 91.611 175.784 111.884 279.189l1.04199 5.30501h32.495h5.73099c30.112 0 29.354 0.0839996 33.869 3.07899c5.65598 3.771 8.44699 9.632 8.44699 15.574
c0 6.45 -3.289 12.995 -9.77301 17.063c-3.41098 2.084 -4.311 2.179 -33.111 2.179c-15.063 0 -27.379 0.0950012 -27.379 0.190002c0 0.0940094 1.185 3.647 2.65298 7.91c19.516 57.505 50.968 104.116 86.4 127.942c5.71298 3.85901 14.872 8.686 16.009 8.686
c0.0769958 0 0.116974 -0.0220032 0.116974 -0.0679932c0 -0.126007 -0.298981 -0.428009 -0.967987 -0.944c-11.382 -8.76801 -16.817 -21.553 -16.817 -34.369c0 -16.679 9.203 -33.412 26.48 -41.421c6.457 -2.98199 13.078 -4.34201 19.551 -4.34201
c26.641 0 50.789 23.038 50.789 50.882c0 3.75598 -0.438995 7.59998 -1.37198 11.487c-5.82602 24.3 -38.557 47.984 -69.157 50.021c-2.46399 0.188995 -6.86899 0.615997 -9.806 0.994995c-4.43201 0.557983 -12.32 0.94101 -17.377 0.94101
c-1.375 0 -2.53998 -0.0280151 -3.37 -0.0890198z" />
    <glyph glyph-name="m" unicode="m" horiz-adv-x="405" 
d="M135.921 271.611c-7.058 -0.994995 -13.216 -2.84299 -16.579 -4.974c-1.279 -0.852997 -4.689 -2.79498 -7.579 -4.358c-28.4209 -15.442 -51.2998 -40.311 -67.5472 -73.468c-6.4277 -13.088 -9.5916 -21.576 -9.5916 -26.72c0 -4.29601 2.206 -6.261 6.56 -6.62801
c0.527802 -0.0429993 1.015 -0.0679932 1.4687 -0.0679932c4.0656 0 5.4345 2.019 9.1418 11.437c11.7474 29.794 31.5 54 52.3893 64.279c6.933 3.43401 11.271 4.97601 14.807 4.97601c1.828 0 3.442 -0.412003 5.08801 -1.18701
c7.193 -3.37399 11.165 -10.406 11.165 -19.118c0 -2.41699 -0.306 -4.964 -0.932999 -7.59799c-0.522003 -2.084 -1.043 -5.06801 -1.23201 -6.63101c-0.189987 -1.564 -13.121 -45.474 -28.753 -97.579c-23.1932 -77.3239 -28.1698 -93.5516 -28.1698 -98.2696
c0 -1.57406 0.553902 -1.86698 1.1701 -2.72018c2.0526 -2.90046 1.24689 -2.98453 29.1827 -2.98453c1.71899 0 3.547 0.000318376 5.491 0.000318376c1.997 0 3.871 -0.000337668 5.63 -0.000337668c27.71 0 26.992 0.0837627 28.996 2.88981
c0.520996 0.7579 11.937 38.0842 26.953 88.1526c16.579 55.2789 26.526 87.7739 27.426 89.4319c1.56299 2.98399 4.121 11.321 4.54799 15.158c1.563 12.836 15.821 32.921 27.473 38.7c2.99699 1.498 4.44299 2.19299 5.823 2.19299
c1.151 0 2.255 -0.483994 4.172 -1.388c7.532 -3.599 11.606 -10.512 11.606 -19.281c0 -2.42601 -0.311996 -4.993 -0.947998 -7.672c-0.520996 -2.084 -1.04201 -5.06801 -1.23199 -6.63101c-0.189011 -1.564 -13.121 -45.474 -28.752 -97.579
c-23.194 -77.3239 -28.17 -93.5516 -28.17 -98.2696c0 -1.57406 0.554001 -1.86698 1.17001 -2.72018c2.05199 -2.90046 1.24699 -2.98453 29.182 -2.98453c1.71899 0 3.547 0.000318376 5.491 0.000318376c1.99701 0 3.871 -0.000337668 5.63 -0.000337668
c27.71 0 26.992 0.0837627 28.997 2.88981c0.520996 0.7579 11.937 38.0842 26.952 88.1526c16.579 55.2789 26.527 87.7739 27.427 89.4319c1.56302 2.98399 4.121 11.321 4.547 15.158c1.56302 12.836 15.821 32.921 27.474 38.7
c3.05902 1.52899 4.55103 2.19299 5.90402 2.19299c0.950989 0 1.83298 -0.327988 3.14297 -0.914001c8.20801 -3.73099 12.566 -10.694 12.566 -19.709c0 -2.431 -0.316986 -5.01099 -0.960999 -7.71799c-0.520996 -2.084 -1.04199 -5.06801 -1.23099 -6.63101
c-0.520996 -4.12099 -38.274 -130.595 -39.979 -133.816c-3.51102 -6.6322 -5.237 -15.2676 -5.237 -24.3c0 -10.708 2.42499 -21.9738 7.17899 -31.121c10.116 -19.5103 30.481 -31.3718 49.673 -31.3718c7.228 0 14.289 1.6822 20.574 5.2718
c1.327 0.7105 5.54199 3.0789 9.427 5.25788c29.842 16.4842 51.536 39.7895 68.4 73.421c7.177 14.3011 10.679 23.4139 10.679 28.8202c0 4.2993 -2.21503 6.2547 -6.55801 6.6111c-0.424988 0.0330048 -0.825989 0.0510025 -1.207 0.0510025
c-4.03699 0 -5.76099 -1.9707 -8.314 -8.7665c-14.495 -38.7473 -44.479 -70.5789 -69.727 -73.8947c-0.232025 -0.0298996 -0.462006 -0.0445995 -0.689026 -0.0445995c-4.89899 0 -8.37 6.8524 -8.37 15.1312c0 2.2596 0.259003 4.6253 0.817017 6.9871
c0.520996 2.2263 1.09 5.3052 1.27899 6.8684c0.520996 4.121 38.274 130.595 39.979 133.816c3.17398 6.015 5.258 16.484 5.258 26.384c-0.0469971 28.847 -18.142 53.953 -44.858 62.384c-5.68298 1.78198 -12.119 2.62201 -18.37 2.62201
c-11.359 0 -22.108 -2.77103 -26.63 -7.69c-0.994995 -1.09 -3.742 -3.50601 -6.10999 -5.306c-8.953 -6.96301 -16.864 -15.489 -23.4 -25.152c-2.36398 -3.51401 -3.216 -4.741 -3.60397 -4.741c-0.202026 0 -0.278015 0.335999 -0.375 0.856995
c-0.332001 1.705 -4.311 9.757 -6.63202 13.357c-7.38901 11.558 -20.558 21.695 -33.442 25.769c-6.159 1.931 -13.008 2.84598 -19.564 2.84598c-11.293 0 -21.716 -2.715 -26.241 -7.62997c-0.994995 -1.09 -3.742 -3.50601 -6.11101 -5.306
c-8.952 -6.96301 -16.863 -15.489 -23.4 -25.152c-2.36301 -3.51401 -3.216 -4.741 -3.603 -4.741c-0.203003 0 -0.278 0.335999 -0.376007 0.856995c-0.330994 1.705 -4.31 9.757 -6.631 13.357c-8.66901 13.548 -23.021 23.543 -39.6 27.522
c-2.284 0.542999 -11.004 1.05899 -16.394 1.05899c-1.653 0 -2.993 -0.0480042 -3.73799 -0.158997z" />
    <glyph glyph-name="p" unicode="p" horiz-adv-x="349" 
d="M136.058 276.584c-8.384 -0.995026 -19.232 -5.21002 -23.969 -9.33102c-1.13599 -0.994995 -5.16299 -3.88498 -8.952 -6.34799c-25.7686 -17.052 -45.6633 -40.073 -60.6317 -70.105c-7.1136 -14.306 -10.593 -23.381 -10.593 -28.756
c0 -4.289 2.2151 -6.22301 6.5666 -6.58101c0.512199 -0.0419922 0.986797 -0.0659943 1.43 -0.0659943c4.0656 0 5.484 2.02499 8.9437 10.866c14.1632 36.095 43.2948 66.316 65.4154 67.832c0.142006 0.00900269 0.282005 0.0139923 0.420006 0.0139923
c5.314 0 8.81699 -6.702 8.81699 -15.207c0 -2.67099 -0.344994 -5.521 -1.089 -8.39699c-0.710999 -2.60501 -1.469 -6.442 -1.705 -8.526c-0.332001 -3.07901 -97.1057 -325.042 -100.611 -334.895c-3.6947 -10.184 -14.2579 -15.395 -43.4368 -21.268
c-4.4053 -0.899994 -8.6685 -1.942 -9.379 -2.321c-3.9038 -2.04399 -5.8261 -6.069 -5.8261 -10.112c0 -4.29599 2.1711 -8.61099 6.4419 -10.588c1.4684 -0.686996 44.9053 -1.03099 88.3421 -1.03099c43.4368 0 86.8739 0.343994 88.3419 1.03099
c4.358 2.015 6.448 6.186 6.448 10.361c0 4.855 -2.827 9.71399 -8.2 11.191c-1.37401 0.332001 -5.069 1.23199 -8.19501 1.942c-10.042 2.274 -19.942 5.96899 -23.4 8.66899c-0.705002 0.544006 -0.955002 0.872009 -0.955002 1.67201
c0 0.382996 0.0579987 0.873993 0.150002 1.549c0.331001 2.463 53.384 178.768 53.81 178.768c0.141998 0 0.804993 -1.9895 1.51599 -4.4053c4.78401 -16.5789 15.442 -32.5421 29.368 -44.0053c2.653 -2.1315 5.827 -4.7842 7.058 -5.8263
c6.06299 -5.124 17.035 -8.0193 29.743 -8.0193c2.681 0 5.44 0.128901 8.24699 0.393c62.858 5.9684 118.373 68.1158 133.152 149.021c2.88901 15.819 4.397 32.951 4.397 47.557c0 9.58 -0.648987 18.073 -1.98099 24.396c-8.78702 41.94 -42.025 71.988 -77.896 71.988
c-2.414 0 -4.841 -0.136993 -7.272 -0.414001c-19.99 -2.32098 -51.821 -23.258 -73.753 -48.648c-2.39101 -2.74699 -3.56599 -4.03299 -4.14999 -4.03299c-0.501999 0 -0.565002 0.955994 -0.587006 2.754c0 4.16899 -4.168 16.342 -7.95799 23.306
c-12.329 22.739 -34.765 36.065 -59.728 36.065c-2.75299 0 -5.536 -0.161987 -8.34 -0.491974zM275.179 221.684c6.96301 -1.942 17.005 -12.031 20.795 -20.842c2.22101 -5.22 3.293 -13.223 3.293 -22.813c0 -15.56 -2.82098 -35.299 -8.125 -54.113
c-12.458 -44.1002 -44.337 -85.5949 -76.831 -100.09c-3.17401 -1.421 -6.44301 -2.9368 -7.295 -3.3631c-0.466003 -0.235699 -1.024 -0.347399 -1.65601 -0.347399c-5.08701 0 -14.972 7.2368 -20.323 15.4105c-5.77901 8.7632 -9.66301 20.8895 -10.184 31.9737
l-0.237 4.7368l15.205 50.2102c10.326 34.106 15.679 51.206 16.768 53.29c0.899994 1.705 2.274 4.92599 3.032 7.2c1.61099 4.784 2.98399 6.537 11.511 14.826c15.068 14.615 35.283 24.588 48.631 24.588c1.96799 0 3.785 -0.216995 5.41599 -0.666992z" />
    <glyph glyph-name="r" unicode="r" horiz-adv-x="300" 
d="M266.047 273.979c-22.926 -2.79501 -46.421 -14.116 -64.279 -31.074c-1.88 -1.789 -3.494 -3.17799 -3.681 -3.17799c-0.00601196 0 -0.0100098 0.0019989 -0.0130005 0.00498962c-0.0480042 0.0940094 -0.806 1.18401 -1.658 2.46301
c-8.811 12.979 -23.353 22.926 -38.037 25.863c-3.42999 0.689972 -7.10899 1.01999 -10.965 1.01999c-29.21 0 -68.5812 -18.925 -86.9929 -43.32c-1.62 -2.136 -2.3505 -4.34599 -2.3505 -6.34599c0 -4.033 2.9711 -7.213 7.6102 -7.213
c0.661499 0 1.3568 0.0650024 2.0824 0.200989c1.3263 0.284012 2.8421 1.51601 7.4842 6.158c13.0177 13.105 27.9416 20.127 42.6706 20.127c1.188 0 2.376 -0.04599 3.561 -0.138c9.51701 -0.737 15.271 -8.91499 15.271 -20.215
c0 -3.211 -0.464996 -6.674 -1.439 -10.29c-0.473999 -1.895 -1.043 -4.73701 -1.23201 -6.395c-0.189987 -1.658 -12.411 -43.247 -28.753 -97.673c-23.1932 -77.3239 -28.1698 -93.5516 -28.1698 -98.2696c0 -1.57406 0.553902 -1.86698 1.1701 -2.72018
c2.0526 -2.90046 1.24689 -2.98453 29.1827 -2.98453c1.71899 0 3.547 0.000318376 5.491 0.000318376c1.997 0 3.871 -0.000337668 5.63 -0.000337668c27.71 0 26.992 0.0837627 28.996 2.88981c0.520996 0.7579 11.937 38.0842 26.953 88.1526
c16.579 55.2319 26.526 87.7739 27.426 89.4319c0.757996 1.42101 1.70599 3.694 2.084 5.06801c0.427002 1.32599 1.043 2.937 1.46899 3.55299c0.378998 0.567993 1.231 3.22099 1.942 5.77899c5.959 23.017 25.454 35.59 45.693 35.59
c14.831 0 30.062 -6.752 40.66 -21.096c7.87201 -10.653 18.403 -16.258 29.39 -16.258c5.672 0 11.466 1.494 17.078 4.558c11.151 6.078 17.065 17.72 17.065 29.548c0 8.82199 -3.289 17.748 -10.149 24.547c-14.042 13.879 -42.071 22.967 -68.435 22.967
c-4.319 0 -8.59399 -0.244019 -12.755 -0.751007z" />
    <glyph glyph-name="s" unicode="s" horiz-adv-x="227" 
d="M181.084 269.479c-38.7 -2.08401 -72.237 -21.553 -88.484 -51.395c-5.4194 -9.924 -7.9966 -20.731 -7.9966 -31.846c0 -34.351 24.6156 -71.638 66.0226 -94.8643c22.027 -12.3158 32.779 -23.1632 39.316 -39.6c0.548004 -1.3874 0.809998 -2.8515 0.809998 -4.3645
c0 -10.0065 -11.474 -22.1477 -27.81 -28.3197c-6.23199 -2.3633 -14.324 -3.5366 -22.466 -3.5366c-8.505 0 -17.065 1.2799 -23.623 3.8208l-1.327 0.473701l2.369 3.5052c3.86501 5.6957 5.58801 11.78 5.58801 17.6866c0 17.3093 -14.79 33.0917 -33.7586 33.0917
c-2.8736 0 -5.8432 -0.362198 -8.8718 -1.1362c-17.5305 -4.491 -28.2158 -21.2547 -28.2158 -37.6316c0 -8.6694 2.9943 -17.2305 9.5527 -23.8052c14.6842 -14.6369 46.5155 -28.9421 71.8105 -32.1632c6.09801 -0.787399 12.106 -1.1745 17.995 -1.1745
c42.644 0 79.07 20.2993 98.673 55.8851c5.43201 9.8895 8.048 20.6553 8.048 31.7469c0 28.8593 -17.712 59.9248 -49.637 83.5008c-4.168 3.07901 -8.19499 5.54201 -19.421 11.889c-20.585 11.659 -37.473 31.905 -37.473 43.726c0 1.28999 0.201004 2.48 0.619995 3.548
c5.50201 14.065 25.709 24.048 46.515 24.048c3.01799 0 6.04799 -0.209991 9.04799 -0.647995c2.985 -0.473999 5.49501 -0.899994 5.543 -0.947998c0.00500488 -0.0019989 0.00700378 -0.0100098 0.00700378 -0.0220032c0 -0.214005 -0.774002 -1.88899 -1.75999 -3.862
c-2.39101 -4.737 -3.479 -9.588 -3.479 -14.287c0 -17.237 14.636 -32.429 33.244 -32.429c2.444 0 4.957 0.262009 7.51399 0.81601c17.453 3.75499 28.911 20.04 28.911 37.192c0 5.56499 -1.20599 11.222 -3.806 16.571c-8.914 18.365 -50.78 34.697 -87.229 34.697
c-2.097 0 -4.175 -0.0540161 -6.229 -0.165009z" />
    <glyph glyph-name="z" unicode="z" horiz-adv-x="267" 
d="M85.7632 249.679c-5.0211 -1.61101 -5.2579 -2.084 -21.979 -39.411c-12.2663 -27.392 -16.1969 -36.088 -16.1969 -40.518c0 -2.174 0.945999 -3.321 2.318 -5.145c2.4237 -3.21599 5.2716 -4.827 8.4874 -4.827c3.3204 0 7.0331 1.718 11.0757 5.159
c11.7 9.94701 21.0316 14.779 31.6896 16.531c3.307 0.520004 39.552 0.834 69.435 0.834c21.668 0 39.992 -0.165009 39.992 -0.537003c0 -0.0039978 -0.00201416 -0.00799561 -0.00601196 -0.0119934c-2.605 -2.464 -155.842 -128.842 -160.579 -132.443
c-14.5895 -11.0368 -24.3474 -19.8 -26.1 -23.4947c-0.7675 -1.6258 -1.1216 -3.299 -1.1216 -4.9259c0 -6.0046 4.8239 -11.379 11.4953 -11.4162c4.1684 0 5.4474 0.66312 12.8368 6.77372c9.0935 7.5476 21.5584 11.2873 34.8237 11.2873
c14.3744 0 29.6888 -4.3913 42.6708 -13.0873c7.15299 -4.78424 10.942 -6.58424 18.948 -9.0474c6.951 -2.13695 14.353 -3.17975 21.98 -3.17975c21.114 0 43.956 7.99145 63.756 22.8851c23.022 17.3368 28.516 23.7789 33.3 39.1263
c2.51001 8.005 3.737 15.755 3.737 22.8007c0 11.1736 -3.086 20.5757 -9.04199 26.4147c-5.96899 5.866 -13.761 8.559 -21.527 8.559c-13.559 0 -27.042 -8.20499 -30.625 -22.0586c-0.593002 -2.2995 -0.872009 -4.5858 -0.872009 -6.8209
c0 -14.3889 11.542 -26.6545 25.006 -26.6545c2.151 0 4.351 0.313103 6.56 0.980598c0.869003 0.263199 1.42999 0.394798 1.717 0.394798c0.154999 0 0.229996 -0.0383987 0.229996 -0.114998c0 -0.0370026 -0.0179901 -0.082901 -0.052002 -0.137695
c-5.575 -9.5459 -8.63699 -12.4353 -15.052 -12.4353c-1.16101 0 -2.43201 0.0946999 -3.84801 0.2617c-11.937 1.421 -22.405 6.4894 -36.189 17.3842c-10.834 8.5949 -24.163 12.8324 -40.428 12.8324c-0.945999 0 -1.901 -0.0143051 -2.86699 -0.0429993
l-8.479 -0.284203l1.13699 1.0895c0.615997 0.615799 39.505 32.826 86.4 71.574c46.894 38.747 86.068 71.242 87.11 72.189c2.49799 2.32201 3.67801 5.46501 3.67801 8.57201c0 4.436 -2.40302 8.802 -6.80402 10.612
c-1.10001 0.479996 -76.87 0.774994 -138.486 0.774994c-41.862 0 -77.1909 -0.136002 -78.1298 -0.442993z" />
    <glyph glyph-name="space" unicode=" " horiz-adv-x="189" 
 />
    <glyph glyph-name="scripts.ufermata" unicode="&#xe122;" horiz-adv-x="324" 
d="M-22.5 351.964c-150.016 -9.70999 -271.705 -123.158 -296.716 -276.584c-2.995 -18.3423 -4.867 -40.7737 -4.867 -54.4327c0 -5.5652 0.311005 -9.6741 0.983002 -11.4568c2.30902 -6.09114 8.27802 -9.49053 14.325 -9.49053c3.87601 0 7.78299 1.39616 10.78 4.37474
c3.79001 3.83684 4.263 5.68416 4.784 18.1421c4.785 116.431 109.09 212.021 249.395 228.552c14.889 1.75301 29.6299 2.603 44.1448 2.603c156.945 0 287.462 -99.345 292.882 -231.155c0.520996 -12.4579 0.993988 -14.3052 4.784 -18.1421
c2.99701 -2.97858 6.90399 -4.37474 10.78 -4.37474c6.047 0 12.016 3.39939 14.325 9.49053c0.671997 1.78267 0.983002 5.89157 0.983002 11.4568c0 13.659 -1.87201 36.0904 -4.867 54.4327c-26.6 163.227 -159.976 277.293 -319.835 277.293
c-7.24184 0 -14.538 -0.235016 -21.8811 -0.709015zM-9.66316 95.9379c-22.4997 -4.99989 -35.9902 -24.7807 -35.9902 -45.0861c0 -10.8585 3.8578 -21.867 12.2587 -30.8455c9.0031 -9.6462 21.1976 -14.3354 33.3396 -14.3354c14.6889 0 29.3008 6.86285 38.0919 20.1143
c4.9974 7.5079 7.4961 16.4723 7.4961 25.4368s-2.4987 17.929 -7.4961 25.4368c-8.3072 12.52 -23.6173 20.2623 -38.641 20.2623c-3.05184 0 -6.09185 -0.319504 -9.05895 -0.983307z" />
    <glyph glyph-name="scripts.ushortfermata" unicode="&#xe123;" horiz-adv-x="286" 
d="M-6.06784 469.054c-3.69474 -1.42099 -6.15786 -4.35797 -13.3106 -16.058c-3.6 -5.87399 -22.6421 -36.758 -42.3473 -68.684c-19.6579 -31.926 -51.8683 -84.126 -71.5263 -116.053c-19.658 -31.926 -52.437 -85.073 -72.853 -118.184
c-20.368 -33.063 -46.421 -75.3632 -57.884 -93.8842c-22.121 -35.8943 -22.168 -35.9998 -22.168 -40.8638v-0.0625c0 -8.8822 6.96002 -15.2362 15.18 -15.2362c1.90598 0 3.88098 0.341755 5.85098 1.07299c3.884 1.46842 6.15802 4.21579 13.453 16.1053
c3.60001 5.8737 22.642 36.7579 42.347 68.6842c19.658 31.9262 51.869 84.1262 71.527 116.052c19.657 31.927 52.4364 85.121 72.8522 118.185c20.4158 33.11 38.179 61.91 39.5053 64.089c1.3263 2.13199 2.5105 3.884 2.6526 3.884
c0.142101 0 1.3263 -1.75201 2.6526 -3.884c1.3264 -2.17902 19.0895 -30.979 39.5053 -64.089c20.4158 -33.064 53.1947 -86.258 72.8526 -118.185c19.6584 -31.926 51.8684 -84.126 71.5264 -116.052c19.705 -31.9263 38.747 -62.8105 42.347 -68.6842
c7.295 -11.8895 9.569 -14.6369 13.453 -16.1053c2.013 -0.734215 15.312 -1.10132 28.605 -1.10132c13.292 0 26.579 0.367105 28.569 1.10132c5.69601 2.13608 9.43503 8.33399 9.43503 14.5358c0 1.6373 -0.26001 3.2748 -0.814026 4.8379
c-0.378998 1.0895 -10.042 17.1474 -21.458 35.7158c-11.463 18.521 -37.516 60.8212 -57.884 93.8842c-20.416 33.111 -53.195 86.258 -72.853 118.184c-19.658 31.927 -51.8685 84.127 -71.5264 116.053c-19.7052 31.926 -38.7473 62.81 -42.3473 68.684
c-7.2948 11.89 -9.56846 14.637 -13.4527 16.105c-1.67369 0.627991 -3.75806 0.935974 -5.84444 0.935974c-2.16508 0 -4.33232 -0.332001 -6.04503 -0.983002zM-9.71521 96.0276c-22.4997 -4.9999 -35.9902 -24.7806 -35.9902 -45.0861
c0 -10.8584 3.8578 -21.8669 12.2586 -30.8454c9.0031 -9.6462 21.1977 -14.3354 33.3396 -14.3354c14.689 0 29.3009 6.86281 38.092 20.1143c4.9974 7.5079 7.496 16.4724 7.496 25.4368c0 8.9645 -2.4986 17.929 -7.496 25.4369
c-8.3073 12.5199 -23.6174 20.2622 -38.6411 20.2622c-3.05184 0 -6.09184 -0.319504 -9.05894 -0.983299z" />
    <glyph glyph-name="scripts.ulongfermata" unicode="&#xe124;" horiz-adv-x="286" 
d="M-276.829 362.883c-3.31598 -1.27899 -6.96298 -4.974 -8.242 -8.33701c-0.757996 -2.013 -1.13699 -87.288 -1.13699 -172.563c0 -85.2755 0.378998 -170.551 1.13699 -172.564c2.32101 -6.20526 8.26501 -9.30789 14.21 -9.30789s11.89 3.10263 14.211 9.30789
c0.946991 2.51054 0.946991 3.12634 0.946991 117.853v115.342h255.79h255.789v-115.342c0 -114.726 0 -115.342 0.946991 -117.853c1.27899 -3.45789 4.927 -7.10526 8.38501 -8.38421c1.86301 -0.696813 3.80399 -1.03515 5.72098 -1.03515
c4.07901 0 8.052 1.5307 10.952 4.39831c3.97498 4.01333 4.327 -9.76183 4.327 93.2668c0 22.2219 -0.0160217 49.8779 -0.0160217 84.3179c0 169.673 0 170.005 -0.947998 172.563c-1.27899 3.45801 -4.92599 7.10501 -8.384 8.384l-2.55798 0.947021l-274.358 -0.0470276
c-271.989 0 -274.357 0 -276.773 -0.946991zM-9.57662 95.9615c-22.4997 -5 -35.9902 -24.7807 -35.9902 -45.0862c0 -10.8584 3.8578 -21.8669 12.2586 -30.8454c9.0031 -9.6462 21.1977 -14.3354 33.3396 -14.3354c14.6889 0 29.3009 6.86278 38.092 20.1143
c4.9973 7.5079 7.496 16.4724 7.496 25.4369s-2.4987 17.9289 -7.496 25.4368c-8.3073 12.52 -23.6174 20.2622 -38.6411 20.2622c-3.05183 0 -6.09184 -0.319405 -9.05894 -0.9832z" />
    </font>
</defs>
</svg>
